<svg width="1280" height="640" viewBox="0 0 1280 640" fill="none" xmlns="http://www.w3.org/2000/svg">
<g clip-path="url(#clip0_211_2)">
<g filter="url(#filter0_d_211_2)">
<path d="M-40 507L-40 255.887C-40 244.517 -30.7827 235.3 -19.4125 235.3V235.3C-8.04234 235.3 1.175 244.517 1.175 255.887V507V772.742C1.175 784.113 10.3923 793.33 21.7625 793.33V793.33C33.1327 793.33 42.35 784.113 42.35 772.742V507V241.257C42.35 229.887 51.5673 220.67 62.9375 220.67V220.67C74.3077 220.67 83.525 229.887 83.525 241.257V507V741.392C83.525 752.763 92.7423 761.98 104.112 761.98V761.98C115.483 761.98 124.7 752.763 124.7 741.392V507V272.607C124.7 261.237 133.917 252.02 145.287 252.02V252.02C156.658 252.02 165.875 261.237 165.875 272.607V507V776.922C165.875 788.293 175.092 797.51 186.462 797.51V797.51C197.833 797.51 207.05 788.293 207.05 776.922V507V237.078C207.05 225.707 216.267 216.49 227.637 216.49V216.49C239.008 216.49 248.225 225.707 248.225 237.078V507V766.472C248.225 777.843 257.442 787.06 268.812 787.06V787.06C280.183 787.06 289.4 777.843 289.4 766.472V507V247.528C289.4 236.157 298.617 226.94 309.987 226.94V226.94C321.358 226.94 330.575 236.157 330.575 247.528V507V699.593C330.575 710.963 339.792 720.18 351.162 720.18V720.18C362.533 720.18 371.75 710.963 371.75 699.593V507V314.407C371.75 303.037 380.967 293.82 392.337 293.82V293.82C403.708 293.82 412.925 303.037 412.925 314.407V507V835.443C412.925 846.813 422.142 856.03 433.512 856.03V856.03C444.883 856.03 454.1 846.813 454.1 835.442V507V178.557C454.1 167.187 463.317 157.97 474.687 157.97V157.97C486.058 157.97 495.275 167.187 495.275 178.558V507V739.302C495.275 750.673 504.492 759.89 515.862 759.89V759.89C527.233 759.89 536.45 750.673 536.45 739.302V507V274.698C536.45 263.327 545.667 254.11 557.037 254.11V254.11C568.408 254.11 577.625 263.327 577.625 274.698V507V902.322C577.625 913.693 586.842 922.91 598.212 922.91V922.91C609.583 922.91 618.8 913.693 618.8 902.322V507V111.677C618.8 100.307 628.017 91.09 639.387 91.09V91.09C650.758 91.09 659.975 100.307 659.975 111.678V507V766.472C659.975 777.843 669.192 787.06 680.562 787.06V787.06C691.933 787.06 701.15 777.843 701.15 766.472V507V247.528C701.15 236.157 710.367 226.94 721.737 226.94V226.94C733.108 226.94 742.325 236.157 742.325 247.528V507V749.753C742.325 761.123 751.542 770.34 762.912 770.34V770.34C774.283 770.34 783.5 761.123 783.5 749.753V507V264.248C783.5 252.877 792.717 243.66 804.087 243.66V243.66C815.458 243.66 824.675 252.877 824.675 264.247V507V810.363C824.675 821.733 833.892 830.95 845.262 830.95V830.95C856.633 830.95 865.85 821.733 865.85 810.362V507V203.637C865.85 192.267 875.067 183.05 886.437 183.05V183.05C897.808 183.05 907.025 192.267 907.025 203.637V507V822.903C907.025 834.273 916.242 843.49 927.612 843.49V843.49C938.983 843.49 948.2 834.273 948.2 822.902V507V191.097C948.2 179.727 957.417 170.51 968.787 170.51V170.51C980.158 170.51 989.375 179.727 989.375 191.098V507V787.372C989.375 798.743 998.592 807.96 1009.96 807.96V807.96C1021.33 807.96 1030.55 798.743 1030.55 787.372V507V226.627C1030.55 215.257 1039.77 206.04 1051.14 206.04V206.04C1062.51 206.04 1071.72 215.257 1071.72 226.627V507V710.042C1071.72 721.413 1080.94 730.63 1092.31 730.63V730.63C1103.68 730.63 1112.9 721.413 1112.9 710.043V507V303.958C1112.9 292.587 1122.12 283.37 1133.49 283.37V283.37C1144.86 283.37 1154.07 292.587 1154.07 303.958V507V774.833C1154.07 786.203 1163.29 795.42 1174.66 795.42V795.42C1186.03 795.42 1195.25 786.203 1195.25 774.833V507V239.168C1195.25 227.797 1204.47 218.58 1215.84 218.58V218.58C1227.21 218.58 1236.42 227.797 1236.42 239.168V507V833.353C1236.42 844.723 1245.64 853.94 1257.01 853.94V853.94C1268.38 853.94 1277.6 844.723 1277.6 833.352V507V180.647C1277.6 169.277 1286.82 160.06 1298.19 160.06V160.06C1309.56 160.06 1318.77 169.277 1318.77 180.647V507V714.222C1318.77 725.593 1327.99 734.81 1339.36 734.81V734.81C1350.73 734.81 1359.95 725.593 1359.95 714.222V507V299.777C1359.95 288.407 1369.17 279.19 1380.54 279.19V279.19C1391.91 279.19 1401.12 288.407 1401.12 299.777V507V904.412C1401.12 915.783 1410.34 925 1421.71 925V925C1433.08 925 1442.3 915.783 1442.3 904.412V507V109.587C1442.3 98.2173 1451.52 89 1462.89 89V89C1474.26 89 1483.47 98.2173 1483.47 109.588V507V724.672C1483.47 736.043 1492.69 745.26 1504.06 745.26V745.26C1515.43 745.26 1524.65 736.043 1524.65 724.672V507V289.328C1524.65 277.957 1533.87 268.74 1545.24 268.74V268.74C1556.61 268.74 1565.82 277.957 1565.82 289.328V507V881.422C1565.82 892.793 1575.04 902.01 1586.41 902.01V902.01C1597.78 902.01 1607 892.793 1607 881.422V507" stroke="url(#paint0_linear_211_2)" stroke-width="4.11765" shape-rendering="crispEdges"/>
</g>
<text fill="#FF2002" xml:space="preserve" style="white-space: pre" font-family="Cairo" font-size="167.426" font-weight="bold" letter-spacing="0em"><tspan x="59.1038" y="432.278">Design</tspan></text>
<text fill="#0047FF" xml:space="preserve" style="white-space: pre" font-family="Cairo" font-size="167.426" font-weight="bold" letter-spacing="0em"><tspan x="592.361" y="432.278">Patterns</tspan></text>
<rect opacity="0.88" x="888.79" y="238.214" width="391.839" height="82" rx="19" transform="rotate(7.56106 888.79 238.214)" fill="white"/>
<text transform="translate(926.745 225.735) rotate(7.56106)" fill="black" xml:space="preserve" style="white-space: pre" font-family="Cairo" font-size="53.0607" letter-spacing="0em"><tspan x="0" y="68.9202">&#x628;&#x627;&#x644;&#x645;&#x62e;&#x62a;&#x635;&#x631; &#x627;&#x644;&#x645;&#x641;&#x64a;&#x62f;</tspan></text>
</g>
<defs>
<filter id="filter0_d_211_2" x="-46.0588" y="86.9412" width="1659.12" height="848.118" filterUnits="userSpaceOnUse" color-interpolation-filters="sRGB">
<feFlood flood-opacity="0" result="BackgroundImageFix"/>
<feColorMatrix in="SourceAlpha" type="matrix" values="0 0 0 0 0 0 0 0 0 0 0 0 0 0 0 0 0 0 127 0" result="hardAlpha"/>
<feOffset dy="4"/>
<feGaussianBlur stdDeviation="2"/>
<feComposite in2="hardAlpha" operator="out"/>
<feColorMatrix type="matrix" values="0 0 0 0 0 0 0 0 0 0 0 0 0 0 0 0 0 0 0.25 0"/>
<feBlend mode="normal" in2="BackgroundImageFix" result="effect1_dropShadow_211_2"/>
<feBlend mode="normal" in="SourceGraphic" in2="effect1_dropShadow_211_2" result="shape"/>
</filter>
<linearGradient id="paint0_linear_211_2" x1="783.5" y1="89" x2="783.5" y2="925" gradientUnits="userSpaceOnUse">
<stop stop-color="white"/>
<stop offset="1" stop-color="#F100F5" stop-opacity="0"/>
</linearGradient>
<clipPath id="clip0_211_2">
<rect width="1280" height="640" rx="56" fill="white"/>
</clipPath>
</defs>
</svg>
