<svg xmlns="http://www.w3.org/2000/svg" width="1280" height="640" fill="none" viewBox="0 0 1280 640"><g clip-path="url(#clip0_211_2)"><g filter="url(#filter0_d_211_2)"><path stroke="url(#paint0_linear_211_2)" stroke-width="4.118" d="M-40 507L-40 255.887C-40 244.517 -30.7827 235.3 -19.4125 235.3V235.3C-8.04234 235.3 1.175 244.517 1.175 255.887V507V772.742C1.175 784.113 10.3923 793.33 21.7625 793.33V793.33C33.1327 793.33 42.35 784.113 42.35 772.742V507V241.257C42.35 229.887 51.5673 220.67 62.9375 220.67V220.67C74.3077 220.67 83.525 229.887 83.525 241.257V507V741.392C83.525 752.763 92.7423 761.98 104.112 761.98V761.98C115.483 761.98 124.7 752.763 124.7 741.392V507V272.607C124.7 261.237 133.917 252.02 145.287 252.02V252.02C156.658 252.02 165.875 261.237 165.875 272.607V507V776.922C165.875 788.293 175.092 797.51 186.462 797.51V797.51C197.833 797.51 207.05 788.293 207.05 776.922V507V237.078C207.05 225.707 216.267 216.49 227.637 216.49V216.49C239.008 216.49 248.225 225.707 248.225 237.078V507V766.472C248.225 777.843 257.442 787.06 268.812 787.06V787.06C280.183 787.06 289.4 777.843 289.4 766.472V507V247.528C289.4 236.157 298.617 226.94 309.987 226.94V226.94C321.358 226.94 330.575 236.157 330.575 247.528V507V699.593C330.575 710.963 339.792 720.18 351.162 720.18V720.18C362.533 720.18 371.75 710.963 371.75 699.593V507V314.407C371.75 303.037 380.967 293.82 392.337 293.82V293.82C403.708 293.82 412.925 303.037 412.925 314.407V507V835.443C412.925 846.813 422.142 856.03 433.512 856.03V856.03C444.883 856.03 454.1 846.813 454.1 835.442V507V178.557C454.1 167.187 463.317 157.97 474.687 157.97V157.97C486.058 157.97 495.275 167.187 495.275 178.558V507V739.302C495.275 750.673 504.492 759.89 515.862 759.89V759.89C527.233 759.89 536.45 750.673 536.45 739.302V507V274.698C536.45 263.327 545.667 254.11 557.037 254.11V254.11C568.408 254.11 577.625 263.327 577.625 274.698V507V902.322C577.625 913.693 586.842 922.91 598.212 922.91V922.91C609.583 922.91 618.8 913.693 618.8 902.322V507V111.677C618.8 100.307 628.017 91.09 639.387 91.09V91.09C650.758 91.09 659.975 100.307 659.975 111.678V507V766.472C659.975 777.843 669.192 787.06 680.562 787.06V787.06C691.933 787.06 701.15 777.843 701.15 766.472V507V247.528C701.15 236.157 710.367 226.94 721.737 226.94V226.94C733.108 226.94 742.325 236.157 742.325 247.528V507V749.753C742.325 761.123 751.542 770.34 762.912 770.34V770.34C774.283 770.34 783.5 761.123 783.5 749.753V507V264.248C783.5 252.877 792.717 243.66 804.087 243.66V243.66C815.458 243.66 824.675 252.877 824.675 264.247V507V810.363C824.675 821.733 833.892 830.95 845.262 830.95V830.95C856.633 830.95 865.85 821.733 865.85 810.362V507V203.637C865.85 192.267 875.067 183.05 886.437 183.05V183.05C897.808 183.05 907.025 192.267 907.025 203.637V507V822.903C907.025 834.273 916.242 843.49 927.612 843.49V843.49C938.983 843.49 948.2 834.273 948.2 822.902V507V191.097C948.2 179.727 957.417 170.51 968.787 170.51V170.51C980.158 170.51 989.375 179.727 989.375 191.098V507V787.372C989.375 798.743 998.592 807.96 1009.96 807.96V807.96C1021.33 807.96 1030.55 798.743 1030.55 787.372V507V226.627C1030.55 215.257 1039.77 206.04 1051.14 206.04V206.04C1062.51 206.04 1071.72 215.257 1071.72 226.627V507V710.042C1071.72 721.413 1080.94 730.63 1092.31 730.63V730.63C1103.68 730.63 1112.9 721.413 1112.9 710.043V507V303.958C1112.9 292.587 1122.12 283.37 1133.49 283.37V283.37C1144.86 283.37 1154.07 292.587 1154.07 303.958V507V774.833C1154.07 786.203 1163.29 795.42 1174.66 795.42V795.42C1186.03 795.42 1195.25 786.203 1195.25 774.833V507V239.168C1195.25 227.797 1204.47 218.58 1215.84 218.58V218.58C1227.21 218.58 1236.42 227.797 1236.42 239.168V507V833.353C1236.42 844.723 1245.64 853.94 1257.01 853.94V853.94C1268.38 853.94 1277.6 844.723 1277.6 833.352V507V180.647C1277.6 169.277 1286.82 160.06 1298.19 160.06V160.06C1309.56 160.06 1318.77 169.277 1318.77 180.647V507V714.222C1318.77 725.593 1327.99 734.81 1339.36 734.81V734.81C1350.73 734.81 1359.95 725.593 1359.95 714.222V507V299.777C1359.95 288.407 1369.17 279.19 1380.54 279.19V279.19C1391.91 279.19 1401.12 288.407 1401.12 299.777V507V904.412C1401.12 915.783 1410.34 925 1421.71 925V925C1433.08 925 1442.3 915.783 1442.3 904.412V507V109.587C1442.3 98.2173 1451.52 89 1462.89 89V89C1474.26 89 1483.47 98.2173 1483.47 109.588V507V724.672C1483.47 736.043 1492.69 745.26 1504.06 745.26V745.26C1515.43 745.26 1524.65 736.043 1524.65 724.672V507V289.328C1524.65 277.957 1533.87 268.74 1545.24 268.74V268.74C1556.61 268.74 1565.82 277.957 1565.82 289.328V507V881.422C1565.82 892.793 1575.04 902.01 1586.41 902.01V902.01C1597.78 902.01 1607 892.793 1607 881.422V507" shape-rendering="crispEdges"/></g><path fill="#FF2002" d="M69.6516 432V317.648H113.35C122.279 317.648 129.758 318.932 135.785 321.499C141.924 323.954 146.835 327.582 150.518 332.381C154.202 337.181 156.825 342.985 158.387 349.794C160.062 356.602 160.899 364.36 160.899 373.066C160.899 381.884 160.118 389.864 158.555 397.008C157.104 404.151 154.592 410.346 151.021 415.592C147.449 420.838 142.649 424.912 136.622 427.814C130.595 430.605 123.061 432 114.02 432H69.6516ZM92.7564 412.579H112.68C117.926 412.579 122.168 411.574 125.405 409.565C128.641 407.556 131.097 404.765 132.771 401.194C134.557 397.51 135.729 393.325 136.287 388.637C136.957 383.837 137.292 378.647 137.292 373.066C137.292 367.708 136.957 362.853 136.287 358.5C135.618 354.035 134.39 350.24 132.604 347.115C130.93 343.878 128.474 341.422 125.237 339.748C122.112 337.962 117.926 337.069 112.68 337.069H92.7564V412.579ZM210.865 433.842C201.601 433.842 194.234 432.279 188.765 429.154C183.407 426.028 179.556 421.285 177.212 414.923C174.868 408.56 173.697 400.58 173.697 390.981C173.697 380.6 175.148 372.117 178.05 365.532C181.063 358.946 185.416 354.091 191.109 350.966C196.801 347.729 203.833 346.11 212.205 346.11C224.594 346.11 233.914 349.236 240.165 355.486C246.527 361.737 249.708 371.615 249.708 385.121L248.703 397.51H196.132C196.243 403.761 197.527 408.449 199.982 411.574C202.438 414.699 206.679 416.262 212.707 416.262C216.167 416.262 219.962 416.206 224.092 416.095C228.222 415.871 232.296 415.648 236.314 415.425C240.444 415.202 243.96 414.978 246.862 414.755L247.364 430.326C244.574 430.772 241.058 431.274 236.816 431.833C232.575 432.391 228.166 432.837 223.59 433.172C219.125 433.618 214.883 433.842 210.865 433.842ZM196.132 383.279H227.44C227.44 375.689 226.213 370.387 223.757 367.373C221.413 364.36 217.562 362.853 212.205 362.853C206.958 362.853 202.94 364.416 200.15 367.541C197.471 370.666 196.132 375.912 196.132 383.279ZM294.819 433.842C291.135 433.842 287.173 433.618 282.932 433.172C278.802 432.837 274.895 432.391 271.212 431.833C267.64 431.274 264.571 430.716 262.003 430.158L262.673 413.583C265.575 413.918 268.812 414.309 272.384 414.755C276.067 415.202 279.639 415.592 283.099 415.927C286.671 416.15 289.573 416.262 291.805 416.262C295.154 416.262 297.888 415.983 300.009 415.425C302.241 414.867 303.916 413.974 305.032 412.746C306.148 411.407 306.706 409.509 306.706 407.054C306.706 405.156 306.204 403.705 305.199 402.7C304.306 401.696 302.52 400.859 299.842 400.189C297.274 399.408 293.479 398.626 288.457 397.845C282.206 396.952 277.016 395.669 272.886 393.994C268.868 392.32 265.91 389.864 264.012 386.628C262.115 383.279 261.166 378.758 261.166 373.066C261.166 366.146 262.673 360.732 265.687 356.826C268.7 352.919 272.719 350.184 277.741 348.622C282.764 346.948 288.233 346.11 294.149 346.11C298.056 346.11 302.074 346.334 306.204 346.78C310.334 347.115 314.24 347.561 317.924 348.119C321.607 348.678 324.677 349.236 327.132 349.794L326.462 366.704C323.672 366.257 320.435 365.867 316.752 365.532C313.068 365.085 309.385 364.75 305.702 364.527C302.13 364.304 299.116 364.192 296.661 364.192C294.093 364.192 291.805 364.471 289.796 365.03C287.787 365.476 286.224 366.257 285.108 367.373C284.104 368.49 283.601 370.164 283.601 372.396C283.601 373.959 284.048 375.243 284.941 376.247C285.834 377.252 287.508 378.145 289.964 378.926C292.531 379.596 296.214 380.265 301.014 380.935C307.934 381.94 313.459 383.335 317.589 385.121C321.719 386.907 324.677 389.474 326.462 392.822C328.36 396.171 329.309 400.691 329.309 406.384C329.309 416.541 326.295 423.685 320.268 427.814C314.352 431.833 305.869 433.842 294.819 433.842ZM343.977 432V347.952H366.244V432H343.977ZM343.977 334.558V315.471H366.412V334.558H343.977ZM421.853 470.341C412.924 470.341 405.446 469.671 399.418 468.331C393.503 466.992 389.038 464.536 386.024 460.965C383.011 457.505 381.504 452.482 381.504 445.896C381.504 442.994 381.894 440.371 382.676 438.027C383.569 435.795 384.908 433.674 386.694 431.665C388.591 429.656 390.935 427.591 393.726 425.47C392.163 424.354 390.88 422.736 389.875 420.615C388.982 418.383 388.536 415.983 388.536 413.416C388.536 412.076 389.317 410.123 390.88 407.556C392.554 404.877 394.172 402.533 395.735 400.524C393.503 399.519 391.382 398.068 389.373 396.171C387.364 394.162 385.689 391.483 384.35 388.134C383.122 384.786 382.508 380.489 382.508 375.243C382.508 364.639 385.522 357.161 391.549 352.807C397.688 348.343 406.394 346.11 417.668 346.11C420.57 346.11 423.695 346.334 427.044 346.78C430.392 347.227 433.071 347.673 435.08 348.119L462.371 347.617V362.686L449.646 362.518C450.651 363.858 451.544 365.588 452.325 367.708C453.218 369.717 453.664 372.229 453.664 375.243C453.664 382.944 452.325 388.916 449.646 393.157C447.079 397.399 443.172 400.356 437.926 402.031C432.68 403.593 426.039 404.375 418.003 404.375C417.11 404.375 415.882 404.319 414.319 404.207C412.757 403.984 411.473 403.817 410.469 403.705C410.022 404.821 409.576 406.105 409.129 407.556C408.683 408.895 408.459 409.844 408.459 410.402C408.459 411.853 408.906 412.969 409.799 413.751C410.803 414.532 412.757 415.09 415.659 415.425C418.672 415.648 423.193 415.76 429.22 415.76C437.145 415.76 443.451 416.485 448.139 417.936C452.939 419.387 456.343 421.954 458.352 425.638C460.362 429.321 461.366 434.511 461.366 441.208C461.366 451.142 457.85 458.453 450.818 463.141C443.898 467.941 434.243 470.341 421.853 470.341ZM420.682 453.765C427.602 453.765 432.569 452.928 435.582 451.254C438.708 449.691 440.27 447.068 440.27 443.385C440.27 440.483 439.712 438.362 438.596 437.023C437.592 435.683 435.861 434.79 433.406 434.344C430.95 434.009 427.602 433.842 423.36 433.842C422.244 433.842 420.905 433.786 419.342 433.674C417.779 433.674 416.161 433.618 414.487 433.507C412.924 433.507 411.473 433.451 410.134 433.339C408.906 433.228 408.013 433.172 407.455 433.172C404.999 434.846 403.325 436.353 402.432 437.692C401.539 439.144 401.093 441.041 401.093 443.385C401.093 445.952 401.707 447.961 402.934 449.412C404.162 450.975 406.171 452.091 408.962 452.761C411.864 453.431 415.77 453.765 420.682 453.765ZM417.835 388.637C422.97 388.637 426.597 387.632 428.718 385.623C430.95 383.502 432.066 380.042 432.066 375.243C432.066 370.443 430.95 366.983 428.718 364.862C426.597 362.741 422.97 361.681 417.835 361.681C412.924 361.681 409.352 362.741 407.12 364.862C404.999 366.983 403.939 370.443 403.939 375.243C403.939 380.042 404.999 383.502 407.12 385.623C409.352 387.632 412.924 388.637 417.835 388.637ZM474.124 432V347.952H496.392V353.31C498.178 352.194 500.355 351.133 502.922 350.129C505.489 349.012 508.168 348.064 510.958 347.282C513.86 346.501 516.651 346.11 519.33 346.11C527.143 346.11 533.17 347.506 537.412 350.296C541.765 352.975 544.834 357.44 546.62 363.69C548.406 369.829 549.299 378.089 549.299 388.469V432H526.864V389.641C526.864 383.837 526.529 379.205 525.859 375.745C525.189 372.173 523.906 369.606 522.008 368.043C520.111 366.481 517.32 365.699 513.637 365.699C511.628 365.699 509.507 365.922 507.275 366.369C505.154 366.704 503.089 367.206 501.08 367.876C499.183 368.545 497.62 369.215 496.392 369.885V432H474.124Z"/><path fill="#0047FF" d="M602.909 432V317.648H645.937C655.425 317.648 663.294 318.987 669.544 321.666C675.795 324.233 680.483 328.419 683.608 334.223C686.845 340.027 688.463 347.785 688.463 357.495C688.463 367.206 686.845 375.131 683.608 381.27C680.483 387.297 675.795 391.762 669.544 394.664C663.294 397.454 655.425 398.85 645.937 398.85H626.013V432H602.909ZM626.013 379.93H645.268C652.299 379.93 657.322 378.089 660.336 374.405C663.35 370.61 664.856 365.03 664.856 357.663C664.856 350.073 663.35 344.659 660.336 341.422C657.322 338.186 652.299 336.567 645.268 336.567H626.013V379.93ZM723.892 433.842C715.186 433.842 708.601 431.665 704.136 427.312C699.783 422.847 697.606 416.15 697.606 407.221C697.606 400.97 698.723 396.115 700.955 392.655C703.187 389.083 706.48 386.516 710.833 384.953C715.298 383.279 720.711 382.274 727.074 381.94L747.499 380.098V375.075C747.499 371.057 746.495 368.266 744.486 366.704C742.477 365.03 739.519 364.192 735.612 364.192C732.487 364.192 728.859 364.304 724.73 364.527C720.711 364.75 716.693 365.03 712.675 365.364C708.768 365.699 705.364 366.034 702.462 366.369L701.792 350.631C704.694 349.961 708.154 349.291 712.173 348.622C716.302 347.84 720.6 347.227 725.064 346.78C729.529 346.334 733.659 346.11 737.454 346.11C744.597 346.11 750.569 347.003 755.369 348.789C760.168 350.575 763.796 353.533 766.251 357.663C768.707 361.681 769.935 367.15 769.935 374.071V412.411C770.158 413.974 770.995 415.202 772.446 416.095C773.897 416.876 775.571 417.434 777.469 417.769L776.967 433.172C774.288 433.284 771.665 433.339 769.097 433.339C766.53 433.339 764.354 433.172 762.568 432.837C760.001 432.502 757.768 431.833 755.871 430.828C754.085 429.823 752.634 428.763 751.518 427.647C749.732 428.428 747.332 429.321 744.318 430.326C741.305 431.33 738.012 432.167 734.44 432.837C730.98 433.507 727.464 433.842 723.892 433.842ZM729.25 417.266C731.371 417.266 733.603 417.043 735.947 416.597C738.291 416.15 740.468 415.648 742.477 415.09C744.597 414.42 746.272 413.806 747.499 413.248V393.994L730.422 395.501C726.739 395.836 724.06 396.952 722.386 398.85C720.823 400.635 720.042 403.203 720.042 406.551C720.042 409.9 720.767 412.523 722.218 414.42C723.781 416.318 726.125 417.266 729.25 417.266ZM819.064 434.009C812.925 434.009 807.958 433.116 804.163 431.33C800.368 429.544 797.633 426.475 795.959 422.122C794.396 417.657 793.615 411.462 793.615 403.538V366.536H783.737V347.952H793.615V325.684H815.883V347.952H837.313V366.536H815.883V397.678C815.883 402.031 816.05 405.435 816.385 407.891C816.831 410.346 817.724 412.076 819.064 413.081C820.403 414.085 822.468 414.588 825.258 414.588C826.04 414.588 827.212 414.532 828.774 414.42C830.337 414.309 831.9 414.197 833.462 414.085C835.025 413.974 836.309 413.862 837.313 413.751L837.983 431.665C835.304 432.112 832.067 432.614 828.272 433.172C824.589 433.73 821.519 434.009 819.064 434.009ZM879.232 434.009C873.094 434.009 868.127 433.116 864.332 431.33C860.537 429.544 857.802 426.475 856.128 422.122C854.565 417.657 853.784 411.462 853.784 403.538V366.536H843.906V347.952H853.784V325.684H876.051V347.952H897.482V366.536H876.051V397.678C876.051 402.031 876.219 405.435 876.554 407.891C877 410.346 877.893 412.076 879.232 413.081C880.572 414.085 882.637 414.588 885.427 414.588C886.209 414.588 887.381 414.532 888.943 414.42C890.506 414.309 892.068 414.197 893.631 414.085C895.194 413.974 896.477 413.862 897.482 413.751L898.152 431.665C895.473 432.112 892.236 432.614 888.441 433.172C884.758 433.73 881.688 434.009 879.232 434.009ZM943.922 433.842C934.658 433.842 927.291 432.279 921.822 429.154C916.464 426.028 912.613 421.285 910.269 414.923C907.925 408.56 906.753 400.58 906.753 390.981C906.753 380.6 908.204 372.117 911.106 365.532C914.12 358.946 918.473 354.091 924.165 350.966C929.858 347.729 936.89 346.11 945.261 346.11C957.651 346.11 966.971 349.236 973.221 355.486C979.584 361.737 982.765 371.615 982.765 385.121L981.76 397.51H929.188C929.3 403.761 930.583 408.449 933.039 411.574C935.495 414.699 939.736 416.262 945.763 416.262C949.224 416.262 953.019 416.206 957.148 416.095C961.278 415.871 965.352 415.648 969.371 415.425C973.5 415.202 977.016 414.978 979.918 414.755L980.421 430.326C977.63 430.772 974.114 431.274 969.873 431.833C965.631 432.391 961.222 432.837 956.646 433.172C952.181 433.618 947.94 433.842 943.922 433.842ZM929.188 383.279H960.497C960.497 375.689 959.269 370.387 956.814 367.373C954.47 364.36 950.619 362.853 945.261 362.853C940.015 362.853 935.997 364.416 933.207 367.541C930.528 370.666 929.188 375.912 929.188 383.279ZM997.571 432V347.952H1019.84V357.83C1021.74 356.379 1024.08 354.872 1026.87 353.31C1029.66 351.635 1032.68 350.129 1035.91 348.789C1039.26 347.338 1042.44 346.389 1045.46 345.943V367.541C1042.55 367.987 1039.48 368.769 1036.25 369.885C1033.01 370.889 1029.94 372.006 1027.04 373.233C1024.25 374.461 1021.85 375.577 1019.84 376.582V432H997.571ZM1057.09 432V347.952H1079.35V353.31C1081.14 352.194 1083.32 351.133 1085.88 350.129C1088.45 349.012 1091.13 348.064 1093.92 347.282C1096.82 346.501 1099.61 346.11 1102.29 346.11C1110.1 346.11 1116.13 347.506 1120.37 350.296C1124.73 352.975 1127.8 357.44 1129.58 363.69C1131.37 369.829 1132.26 378.089 1132.26 388.469V432H1109.83V389.641C1109.83 383.837 1109.49 379.205 1108.82 375.745C1108.15 372.173 1106.87 369.606 1104.97 368.043C1103.07 366.481 1100.28 365.699 1096.6 365.699C1094.59 365.699 1092.47 365.922 1090.24 366.369C1088.12 366.704 1086.05 367.206 1084.04 367.876C1082.14 368.545 1080.58 369.215 1079.35 369.885V432H1057.09ZM1179.93 433.842C1176.25 433.842 1172.29 433.618 1168.05 433.172C1163.92 432.837 1160.01 432.391 1156.33 431.833C1152.75 431.274 1149.68 430.716 1147.12 430.158L1147.79 413.583C1150.69 413.918 1153.93 414.309 1157.5 414.755C1161.18 415.202 1164.75 415.592 1168.21 415.927C1171.78 416.15 1174.69 416.262 1176.92 416.262C1180.27 416.262 1183 415.983 1185.12 415.425C1187.36 414.867 1189.03 413.974 1190.15 412.746C1191.26 411.407 1191.82 409.509 1191.82 407.054C1191.82 405.156 1191.32 403.705 1190.31 402.7C1189.42 401.696 1187.63 400.859 1184.96 400.189C1182.39 399.408 1178.59 398.626 1173.57 397.845C1167.32 396.952 1162.13 395.669 1158 393.994C1153.98 392.32 1151.02 389.864 1149.13 386.628C1147.23 383.279 1146.28 378.758 1146.28 373.066C1146.28 366.146 1147.79 360.732 1150.8 356.826C1153.81 352.919 1157.83 350.184 1162.86 348.622C1167.88 346.948 1173.35 346.11 1179.26 346.11C1183.17 346.11 1187.19 346.334 1191.32 346.78C1195.45 347.115 1199.35 347.561 1203.04 348.119C1206.72 348.678 1209.79 349.236 1212.25 349.794L1211.58 366.704C1208.79 366.257 1205.55 365.867 1201.87 365.532C1198.18 365.085 1194.5 364.75 1190.82 364.527C1187.24 364.304 1184.23 364.192 1181.77 364.192C1179.21 364.192 1176.92 364.471 1174.91 365.03C1172.9 365.476 1171.34 366.257 1170.22 367.373C1169.22 368.49 1168.71 370.164 1168.71 372.396C1168.71 373.959 1169.16 375.243 1170.05 376.247C1170.95 377.252 1172.62 378.145 1175.08 378.926C1177.64 379.596 1181.33 380.265 1186.13 380.935C1193.05 381.94 1198.57 383.335 1202.7 385.121C1206.83 386.907 1209.79 389.474 1211.58 392.822C1213.47 396.171 1214.42 400.691 1214.42 406.384C1214.42 416.541 1211.41 423.685 1205.38 427.814C1199.47 431.833 1190.98 433.842 1179.93 433.842Z"/><rect width="391.839" height="82" x="888.79" y="238.214" fill="#fff" opacity=".88" rx="19" transform="rotate(7.56106 888.79 238.214)"/><path fill="#000" d="M940.126 297.116L940.621 293.382L946.302 294.136L945.806 297.87L940.126 297.116ZM919.77 294.414L920.265 290.68L939.885 293.284L936.121 295.835L937.643 284.368C937.987 281.774 937.961 279.683 937.565 278.096C937.169 276.509 936.329 275.309 935.046 274.496C933.802 273.653 932.04 273.08 929.761 272.778L925.5 272.212L925.996 268.477L930.256 269.043C933.062 269.415 935.405 270.173 937.288 271.314C939.17 272.456 940.5 274.132 941.278 276.34C942.06 278.514 942.216 281.371 941.745 284.913L940.126 297.116L919.77 294.414ZM945.806 297.87L946.302 294.136C946.758 294.196 947.015 294.409 947.074 294.773C947.172 295.107 947.184 295.555 947.11 296.116C947.035 296.677 946.905 297.124 946.718 297.456C946.566 297.793 946.262 297.931 945.806 297.87ZM955.598 299.17L956.094 295.435L961.774 296.189L961.279 299.924L955.598 299.17ZM961.279 299.924L961.774 296.189C962.23 296.25 962.488 296.462 962.546 296.827C962.645 297.161 962.657 297.609 962.582 298.17C962.508 298.731 962.377 299.178 962.19 299.51C962.038 299.846 961.735 299.984 961.279 299.924ZM945.815 297.871L946.31 294.137L953.885 295.142L951.789 296.416L954.986 272.326L959.089 272.87L955.598 299.17L945.815 297.871ZM945.815 297.871C945.359 297.811 945.101 297.598 945.043 297.233C944.949 296.864 944.939 296.399 945.014 295.838C945.088 295.277 945.217 294.848 945.399 294.551C945.551 294.214 945.854 294.076 946.31 294.137L945.815 297.871ZM946.662 307.618L947.29 302.884L951.393 303.429L950.765 308.163L946.662 307.618ZM953.868 308.575L954.496 303.841L958.599 304.386L957.971 309.119L953.868 308.575ZM989.206 303.631L989.702 299.896L995.383 300.65L994.887 304.385L989.206 303.631ZM961.276 299.923L961.772 296.189L988.334 299.715L985.285 301.719L988.336 278.733L990.255 280.807L981.313 279.62C979.279 279.351 977.669 279.387 976.482 279.729C975.329 280.075 974.452 280.904 973.85 282.216C973.252 283.493 972.781 285.428 972.437 288.023C972.092 290.618 972.04 292.627 972.279 294.051C972.523 295.439 973.156 296.451 974.178 297.086C975.235 297.726 976.78 298.181 978.814 298.451L978.458 301.134C975.407 300.729 973.071 300.044 971.451 299.08C969.87 298.085 968.845 296.664 968.377 294.818C967.948 292.941 967.934 290.495 968.334 287.479C968.734 284.463 969.395 282.035 970.318 280.195C971.28 278.324 972.663 277.045 974.467 276.357C976.311 275.638 978.758 275.481 981.809 275.886L992.697 277.331L989.206 303.631L961.276 299.923ZM961.276 299.923C960.82 299.863 960.563 299.65 960.504 299.286C960.41 298.917 960.401 298.451 960.475 297.89C960.55 297.329 960.678 296.9 960.86 296.603C961.012 296.267 961.316 296.128 961.772 296.189L961.276 299.923ZM994.887 304.385L995.383 300.65C995.838 300.711 996.096 300.923 996.154 301.288C996.253 301.622 996.265 302.07 996.19 302.631C996.116 303.192 995.985 303.639 995.798 303.971C995.647 304.307 995.343 304.445 994.887 304.385ZM981.175 270.984L981.803 266.25L985.906 266.795L985.278 271.529L981.175 270.984ZM1024.69 308.341L1025.19 304.607L1030.87 305.361L1030.37 309.095L1024.69 308.341ZM994.87 304.383L995.365 300.648L1024.14 304.467L1020.8 306.219L1022.3 294.91C1022.63 292.455 1022.6 290.489 1022.23 289.012C1021.85 287.535 1021.02 286.408 1019.73 285.63C1018.48 284.857 1016.7 284.317 1014.38 284.01C1012.91 283.814 1011.42 283.724 1009.92 283.739C1008.46 283.758 1007.3 283.89 1006.44 284.134L1009.25 281.937C1008.93 282.751 1008.58 283.792 1008.19 285.062C1007.82 286.296 1007.46 287.641 1007.12 289.095C1006.79 290.549 1006.52 292.012 1006.33 293.485C1006.13 294.993 1006 296.475 1005.95 297.931C1005.9 299.388 1005.89 300.654 1005.93 301.729C1005.96 302.804 1006.01 303.559 1006.05 303.994L1002.02 304.582C1001.94 304.107 1001.87 303.295 1001.8 302.145C1001.78 301 1001.78 299.626 1001.82 298.025C1001.88 296.428 1002.04 294.736 1002.28 292.948C1002.5 291.229 1002.79 289.573 1003.15 287.979C1003.54 286.354 1003.93 284.889 1004.32 283.584C1004.74 282.284 1005.11 281.245 1005.43 280.467C1006.24 280.253 1007.51 280.101 1009.24 280.009C1010.96 279.916 1012.84 280.005 1014.88 280.275C1017.82 280.666 1020.22 281.43 1022.07 282.568C1023.95 283.71 1025.25 285.328 1025.97 287.422C1026.7 289.481 1026.84 292.158 1026.4 295.454L1024.69 308.341L994.87 304.383ZM994.87 304.383C994.414 304.322 994.157 304.11 994.098 303.745C994.004 303.376 993.995 302.91 994.069 302.349C994.143 301.788 994.272 301.359 994.454 301.062C994.606 300.726 994.91 300.588 995.365 300.648L994.87 304.383ZM1030.37 309.095L1030.87 305.361C1031.33 305.421 1031.58 305.634 1031.64 305.999C1031.74 306.333 1031.75 306.78 1031.68 307.341C1031.6 307.903 1031.47 308.349 1031.29 308.681C1031.13 309.018 1030.83 309.156 1030.37 309.095ZM1036.73 309.939L1041.73 272.225L1045.84 272.77L1040.83 310.483L1036.73 309.939ZM1030.36 309.094L1030.86 305.359L1037.22 306.204L1036.73 309.939L1030.36 309.094ZM1030.36 309.094C1029.91 309.034 1029.65 308.821 1029.59 308.456C1029.5 308.087 1029.49 307.622 1029.56 307.061C1029.64 306.5 1029.77 306.071 1029.95 305.774C1030.1 305.437 1030.4 305.299 1030.86 305.359L1030.36 309.094ZM1049.9 311.687L1054.9 273.973L1058.96 274.511L1053.95 312.225L1049.9 311.687ZM1123.71 321.485L1124.21 317.75L1129.89 318.504L1129.39 322.239L1123.71 321.485ZM1129.39 322.239L1129.89 318.504C1130.34 318.565 1130.6 318.777 1130.66 319.142C1130.76 319.476 1130.77 319.924 1130.69 320.485C1130.62 321.046 1130.49 321.492 1130.3 321.824C1130.15 322.161 1129.85 322.299 1129.39 322.239ZM1096.1 317.819L1096.59 314.085L1123.89 317.708L1119.65 320.624L1121.29 308.264C1121.58 306.054 1121.53 304.191 1121.12 302.674C1120.72 301.123 1119.96 299.897 1118.83 298.998C1117.73 298.103 1116.26 297.532 1114.4 297.286C1112.89 297.086 1111.43 297.16 1110.03 297.509C1108.63 297.823 1107.32 298.327 1106.09 299.019C1104.86 299.677 1103.68 300.449 1102.57 301.335C1101.49 302.192 1100.48 303.075 1099.54 303.984C1098.6 304.894 1097.74 305.726 1096.96 306.479L1096.14 302.57C1097.16 301.599 1098.18 300.629 1099.2 299.658C1100.26 298.692 1101.34 297.801 1102.45 296.984C1103.56 296.133 1104.74 295.415 1106 294.833C1107.29 294.254 1108.66 293.848 1110.12 293.614C1111.58 293.344 1113.19 293.325 1114.95 293.558C1117.44 293.889 1119.41 294.579 1120.88 295.63C1122.38 296.686 1123.48 297.973 1124.17 299.492C1124.9 300.981 1125.33 302.538 1125.47 304.162C1125.62 305.787 1125.59 307.335 1125.39 308.808L1123.71 321.485L1096.1 317.819ZM1082.94 298.409L1083.44 294.621L1094.8 296.13L1094.3 299.917L1082.94 298.409ZM1091.99 317.274L1095.48 290.975L1099.59 291.519L1096.1 317.819L1091.99 317.274ZM1069.46 326.113C1069.01 326.053 1068.54 325.955 1068.06 325.819C1067.54 325.715 1067.03 325.612 1066.55 325.512L1067.51 321.84C1068 321.94 1068.45 322.036 1068.87 322.127C1069.28 322.253 1069.64 322.337 1069.96 322.379C1071.61 322.597 1073.02 322.143 1074.21 321.016C1075.39 319.923 1076.12 318.273 1076.42 316.063L1080.02 288.922L1084.12 289.467L1080.52 316.608C1080.24 318.747 1079.57 320.567 1078.51 322.069C1077.49 323.61 1076.2 324.723 1074.64 325.409C1073.08 326.13 1071.36 326.365 1069.46 326.113ZM1139.18 323.538L1139.68 319.804L1145.36 320.558L1144.86 324.292L1139.18 323.538ZM1144.86 324.292L1145.36 320.558C1145.81 320.618 1146.07 320.831 1146.13 321.195C1146.23 321.53 1146.24 321.977 1146.17 322.538C1146.09 323.099 1145.96 323.546 1145.77 323.878C1145.62 324.215 1145.32 324.353 1144.86 324.292ZM1129.4 322.24L1129.89 318.505L1137.47 319.51L1135.37 320.784L1138.57 296.694L1142.67 297.239L1139.18 323.538L1129.4 322.24ZM1129.4 322.24C1128.94 322.179 1128.69 321.966 1128.63 321.602C1128.53 321.233 1128.52 320.767 1128.6 320.206C1128.67 319.645 1128.8 319.216 1128.98 318.919C1129.13 318.583 1129.44 318.445 1129.89 318.505L1129.4 322.24ZM1135.62 291.485L1136.25 286.751L1140.35 287.296L1139.72 292.03L1135.62 291.485ZM1142.83 292.442L1143.46 287.708L1147.56 288.252L1146.93 292.986L1142.83 292.442ZM1170.9 327.748L1171.39 324.013L1177.07 324.767L1176.58 328.502L1170.9 327.748ZM1144.86 324.292L1145.36 320.557L1168.55 323.636L1167.14 324.573L1168.87 311.529C1169.18 309.249 1168.68 307.453 1167.4 306.14C1166.15 304.797 1164.07 303.932 1161.16 303.546C1160.24 303.425 1158.92 303.338 1157.18 303.285C1155.44 303.197 1153.61 303.168 1151.67 303.197L1151.65 299.768C1153.13 299.608 1154.75 299.52 1156.5 299.502C1158.26 299.45 1159.94 299.531 1161.55 299.745C1164.22 300.098 1166.44 300.822 1168.22 301.915C1170.05 302.977 1171.36 304.365 1172.17 306.078C1173.01 307.796 1173.28 309.794 1172.98 312.073L1170.9 327.748L1144.86 324.292ZM1144.86 324.292C1144.4 324.231 1144.15 324.019 1144.09 323.654C1143.99 323.285 1143.98 322.82 1144.06 322.259C1144.13 321.698 1144.26 321.269 1144.44 320.972C1144.6 320.635 1144.9 320.497 1145.36 320.557L1144.86 324.292ZM1176.58 328.502L1177.07 324.767C1177.53 324.828 1177.79 325.04 1177.85 325.405C1177.94 325.739 1177.96 326.187 1177.88 326.748C1177.81 327.309 1177.68 327.756 1177.49 328.088C1177.34 328.424 1177.03 328.562 1176.58 328.502ZM1159.98 295.843L1160.61 291.109L1164.71 291.654L1164.09 296.388L1159.98 295.843ZM1206.38 332.457L1206.87 328.723L1212.55 329.477L1212.06 333.211L1206.38 332.457ZM1176.55 328.499L1177.05 324.764L1205.82 328.583L1202.48 330.335L1203.98 319.026C1204.31 316.571 1204.29 314.605 1203.91 313.128C1203.54 311.651 1202.7 310.524 1201.42 309.746C1200.16 308.973 1198.38 308.433 1196.06 308.126C1194.59 307.93 1193.11 307.84 1191.6 307.855C1190.14 307.875 1188.98 308.006 1188.13 308.25L1190.93 306.053C1190.61 306.867 1190.26 307.908 1189.88 309.178C1189.5 310.412 1189.14 311.757 1188.81 313.211C1188.47 314.665 1188.2 316.128 1188.01 317.601C1187.81 319.109 1187.68 320.591 1187.63 322.048C1187.58 323.504 1187.58 324.77 1187.61 325.845C1187.65 326.92 1187.69 327.675 1187.74 328.11L1183.7 328.698C1183.62 328.223 1183.55 327.411 1183.49 326.261C1183.46 325.116 1183.47 323.742 1183.5 322.141C1183.57 320.545 1183.72 318.852 1183.96 317.064C1184.19 315.345 1184.48 313.689 1184.83 312.095C1185.23 310.47 1185.62 309.005 1186 307.701C1186.43 306.401 1186.8 305.361 1187.11 304.583C1187.93 304.37 1189.2 304.217 1190.92 304.125C1192.65 304.032 1194.53 304.121 1196.56 304.391C1199.51 304.782 1201.9 305.546 1203.75 306.684C1205.63 307.826 1206.93 309.444 1207.66 311.538C1208.38 313.597 1208.53 316.274 1208.09 319.571L1206.38 332.457L1176.55 328.499ZM1176.55 328.499C1176.1 328.438 1175.84 328.226 1175.78 327.861C1175.69 327.492 1175.68 327.027 1175.75 326.466C1175.83 325.904 1175.96 325.475 1176.14 325.178C1176.29 324.842 1176.59 324.704 1177.05 324.764L1176.55 328.499ZM1212.06 333.211L1212.55 329.477C1213.01 329.537 1213.27 329.75 1213.33 330.115C1213.42 330.449 1213.44 330.896 1213.36 331.458C1213.29 332.019 1213.16 332.465 1212.97 332.797C1212.82 333.134 1212.51 333.272 1212.06 333.211ZM1218.41 334.055L1223.42 296.341L1227.52 296.886L1222.51 334.6L1218.41 334.055ZM1212.05 333.21L1212.54 329.476L1218.91 330.32L1218.41 334.055L1212.05 333.21ZM1212.05 333.21C1211.59 333.15 1211.33 332.937 1211.28 332.572C1211.18 332.203 1211.17 331.738 1211.25 331.177C1211.32 330.616 1211.45 330.187 1211.63 329.89C1211.78 329.553 1212.09 329.415 1212.54 329.476L1212.05 333.21ZM1235.63 336.341L1236.13 332.606L1242.55 333.458L1242.05 337.193L1235.63 336.341ZM1231.58 335.803L1236.59 298.089L1240.64 298.627L1235.63 336.341L1231.58 335.803ZM1242.05 337.193L1242.55 333.458C1243 333.518 1243.26 333.731 1243.32 334.096C1243.42 334.43 1243.43 334.878 1243.35 335.439C1243.28 336 1243.15 336.446 1242.96 336.778C1242.81 337.115 1242.51 337.253 1242.05 337.193ZM1242.05 337.192L1242.54 333.457L1250.12 334.463L1248.02 335.737L1251.22 311.646L1255.32 312.191L1251.83 338.491L1242.05 337.192ZM1242.05 337.192C1241.59 337.131 1241.33 336.919 1241.27 336.554C1241.18 336.185 1241.17 335.72 1241.25 335.159C1241.32 334.598 1241.45 334.169 1241.63 333.872C1241.78 333.535 1242.09 333.397 1242.54 333.457L1242.05 337.192ZM1246.47 347.414L1247.1 342.68L1251.2 343.225L1250.57 347.958L1246.47 347.414Z"/></g><defs><filter id="filter0_d_211_2" width="1659.12" height="848.118" x="-46.059" y="86.941" color-interpolation-filters="sRGB" filterUnits="userSpaceOnUse"><feFlood flood-opacity="0" result="BackgroundImageFix"/><feColorMatrix in="SourceAlpha" result="hardAlpha" type="matrix" values="0 0 0 0 0 0 0 0 0 0 0 0 0 0 0 0 0 0 127 0"/><feOffset dy="4"/><feGaussianBlur stdDeviation="2"/><feComposite in2="hardAlpha" operator="out"/><feColorMatrix type="matrix" values="0 0 0 0 0 0 0 0 0 0 0 0 0 0 0 0 0 0 0.25 0"/><feBlend in2="BackgroundImageFix" mode="normal" result="effect1_dropShadow_211_2"/><feBlend in="SourceGraphic" in2="effect1_dropShadow_211_2" mode="normal" result="shape"/></filter><linearGradient id="paint0_linear_211_2" x1="783.5" x2="783.5" y1="89" y2="925" gradientUnits="userSpaceOnUse"><stop stop-color="#fff"/><stop offset="1" stop-color="#F100F5" stop-opacity="0"/></linearGradient><clipPath id="clip0_211_2"><rect width="1280" height="640" fill="#fff" rx="56"/></clipPath></defs></svg>