<svg width="1280" height="640" viewBox="0 0 1280 640" fill="none" xmlns="http://www.w3.org/2000/svg">
<g clip-path="url(#clip0_211_2)">
<g filter="url(#filter0_d_211_2)">
<path d="M-40 507L-40 255.887C-40 244.517 -30.7827 235.3 -19.4125 235.3V235.3C-8.04234 235.3 1.175 244.517 1.175 255.887V507V772.742C1.175 784.113 10.3923 793.33 21.7625 793.33V793.33C33.1327 793.33 42.35 784.113 42.35 772.742V507V241.257C42.35 229.887 51.5673 220.67 62.9375 220.67V220.67C74.3077 220.67 83.525 229.887 83.525 241.257V507V741.392C83.525 752.763 92.7423 761.98 104.112 761.98V761.98C115.483 761.98 124.7 752.763 124.7 741.392V507V272.607C124.7 261.237 133.917 252.02 145.287 252.02V252.02C156.658 252.02 165.875 261.237 165.875 272.607V507V776.922C165.875 788.293 175.092 797.51 186.462 797.51V797.51C197.833 797.51 207.05 788.293 207.05 776.922V507V237.078C207.05 225.707 216.267 216.49 227.637 216.49V216.49C239.008 216.49 248.225 225.707 248.225 237.078V507V766.472C248.225 777.843 257.442 787.06 268.812 787.06V787.06C280.183 787.06 289.4 777.843 289.4 766.472V507V247.528C289.4 236.157 298.617 226.94 309.987 226.94V226.94C321.358 226.94 330.575 236.157 330.575 247.528V507V699.593C330.575 710.963 339.792 720.18 351.162 720.18V720.18C362.533 720.18 371.75 710.963 371.75 699.593V507V314.407C371.75 303.037 380.967 293.82 392.337 293.82V293.82C403.708 293.82 412.925 303.037 412.925 314.407V507V835.443C412.925 846.813 422.142 856.03 433.512 856.03V856.03C444.883 856.03 454.1 846.813 454.1 835.442V507V178.557C454.1 167.187 463.317 157.97 474.687 157.97V157.97C486.058 157.97 495.275 167.187 495.275 178.558V507V739.302C495.275 750.673 504.492 759.89 515.862 759.89V759.89C527.233 759.89 536.45 750.673 536.45 739.302V507V274.698C536.45 263.327 545.667 254.11 557.037 254.11V254.11C568.408 254.11 577.625 263.327 577.625 274.698V507V902.322C577.625 913.693 586.842 922.91 598.212 922.91V922.91C609.583 922.91 618.8 913.693 618.8 902.322V507V111.677C618.8 100.307 628.017 91.09 639.387 91.09V91.09C650.758 91.09 659.975 100.307 659.975 111.678V507V766.472C659.975 777.843 669.192 787.06 680.562 787.06V787.06C691.933 787.06 701.15 777.843 701.15 766.472V507V247.528C701.15 236.157 710.367 226.94 721.737 226.94V226.94C733.108 226.94 742.325 236.157 742.325 247.528V507V749.753C742.325 761.123 751.542 770.34 762.912 770.34V770.34C774.283 770.34 783.5 761.123 783.5 749.753V507V264.248C783.5 252.877 792.717 243.66 804.087 243.66V243.66C815.458 243.66 824.675 252.877 824.675 264.247V507V810.363C824.675 821.733 833.892 830.95 845.262 830.95V830.95C856.633 830.95 865.85 821.733 865.85 810.362V507V203.637C865.85 192.267 875.067 183.05 886.437 183.05V183.05C897.808 183.05 907.025 192.267 907.025 203.637V507V822.903C907.025 834.273 916.242 843.49 927.612 843.49V843.49C938.983 843.49 948.2 834.273 948.2 822.902V507V191.097C948.2 179.727 957.417 170.51 968.787 170.51V170.51C980.158 170.51 989.375 179.727 989.375 191.098V507V787.372C989.375 798.743 998.592 807.96 1009.96 807.96V807.96C1021.33 807.96 1030.55 798.743 1030.55 787.372V507V226.627C1030.55 215.257 1039.77 206.04 1051.14 206.04V206.04C1062.51 206.04 1071.72 215.257 1071.72 226.627V507V710.042C1071.72 721.413 1080.94 730.63 1092.31 730.63V730.63C1103.68 730.63 1112.9 721.413 1112.9 710.043V507V303.958C1112.9 292.587 1122.12 283.37 1133.49 283.37V283.37C1144.86 283.37 1154.07 292.587 1154.07 303.958V507V774.833C1154.07 786.203 1163.29 795.42 1174.66 795.42V795.42C1186.03 795.42 1195.25 786.203 1195.25 774.833V507V239.168C1195.25 227.797 1204.47 218.58 1215.84 218.58V218.58C1227.21 218.58 1236.42 227.797 1236.42 239.168V507V833.353C1236.42 844.723 1245.64 853.94 1257.01 853.94V853.94C1268.38 853.94 1277.6 844.723 1277.6 833.352V507V180.647C1277.6 169.277 1286.82 160.06 1298.19 160.06V160.06C1309.56 160.06 1318.77 169.277 1318.77 180.647V507V714.222C1318.77 725.593 1327.99 734.81 1339.36 734.81V734.81C1350.73 734.81 1359.95 725.593 1359.95 714.222V507V299.777C1359.95 288.407 1369.17 279.19 1380.54 279.19V279.19C1391.91 279.19 1401.12 288.407 1401.12 299.777V507V904.412C1401.12 915.783 1410.34 925 1421.71 925V925C1433.08 925 1442.3 915.783 1442.3 904.412V507V109.587C1442.3 98.2173 1451.52 89 1462.89 89V89C1474.26 89 1483.47 98.2173 1483.47 109.588V507V724.672C1483.47 736.043 1492.69 745.26 1504.06 745.26V745.26C1515.43 745.26 1524.65 736.043 1524.65 724.672V507V289.328C1524.65 277.957 1533.87 268.74 1545.24 268.74V268.74C1556.61 268.74 1565.82 277.957 1565.82 289.328V507V881.422C1565.82 892.793 1575.04 902.01 1586.41 902.01V902.01C1597.78 902.01 1607 892.793 1607 881.422V507" stroke="url(#paint0_linear_211_2)" stroke-width="4.11765" shape-rendering="crispEdges"/>
</g>
<path d="M69.6516 432V317.648H113.35C122.279 317.648 129.758 318.932 135.785 321.499C141.924 323.954 146.835 327.582 150.518 332.381C154.202 337.181 156.825 342.985 158.387 349.794C160.062 356.602 160.899 364.36 160.899 373.066C160.899 381.884 160.118 389.864 158.555 397.008C157.104 404.151 154.592 410.346 151.021 415.592C147.449 420.838 142.649 424.912 136.622 427.814C130.595 430.605 123.061 432 114.02 432H69.6516ZM92.7564 412.579H112.68C117.926 412.579 122.168 411.574 125.405 409.565C128.641 407.556 131.097 404.765 132.771 401.194C134.557 397.51 135.729 393.325 136.287 388.637C136.957 383.837 137.292 378.647 137.292 373.066C137.292 367.708 136.957 362.853 136.287 358.5C135.618 354.035 134.39 350.24 132.604 347.115C130.93 343.878 128.474 341.422 125.237 339.748C122.112 337.962 117.926 337.069 112.68 337.069H92.7564V412.579ZM210.865 433.842C201.601 433.842 194.234 432.279 188.765 429.154C183.407 426.028 179.556 421.285 177.212 414.923C174.868 408.56 173.697 400.58 173.697 390.981C173.697 380.6 175.148 372.117 178.05 365.532C181.063 358.946 185.416 354.091 191.109 350.966C196.801 347.729 203.833 346.11 212.205 346.11C224.594 346.11 233.914 349.236 240.165 355.486C246.527 361.737 249.708 371.615 249.708 385.121L248.703 397.51H196.132C196.243 403.761 197.527 408.449 199.982 411.574C202.438 414.699 206.679 416.262 212.707 416.262C216.167 416.262 219.962 416.206 224.092 416.095C228.222 415.871 232.296 415.648 236.314 415.425C240.444 415.202 243.96 414.978 246.862 414.755L247.364 430.326C244.574 430.772 241.058 431.274 236.816 431.833C232.575 432.391 228.166 432.837 223.59 433.172C219.125 433.618 214.883 433.842 210.865 433.842ZM196.132 383.279H227.44C227.44 375.689 226.213 370.387 223.757 367.373C221.413 364.36 217.562 362.853 212.205 362.853C206.958 362.853 202.94 364.416 200.15 367.541C197.471 370.666 196.132 375.912 196.132 383.279ZM294.819 433.842C291.135 433.842 287.173 433.618 282.932 433.172C278.802 432.837 274.895 432.391 271.212 431.833C267.64 431.274 264.571 430.716 262.003 430.158L262.673 413.583C265.575 413.918 268.812 414.309 272.384 414.755C276.067 415.202 279.639 415.592 283.099 415.927C286.671 416.15 289.573 416.262 291.805 416.262C295.154 416.262 297.888 415.983 300.009 415.425C302.241 414.867 303.916 413.974 305.032 412.746C306.148 411.407 306.706 409.509 306.706 407.054C306.706 405.156 306.204 403.705 305.199 402.7C304.306 401.696 302.52 400.859 299.842 400.189C297.274 399.408 293.479 398.626 288.457 397.845C282.206 396.952 277.016 395.669 272.886 393.994C268.868 392.32 265.91 389.864 264.012 386.628C262.115 383.279 261.166 378.758 261.166 373.066C261.166 366.146 262.673 360.732 265.687 356.826C268.7 352.919 272.719 350.184 277.741 348.622C282.764 346.948 288.233 346.11 294.149 346.11C298.056 346.11 302.074 346.334 306.204 346.78C310.334 347.115 314.24 347.561 317.924 348.119C321.607 348.678 324.677 349.236 327.132 349.794L326.462 366.704C323.672 366.257 320.435 365.867 316.752 365.532C313.068 365.085 309.385 364.75 305.702 364.527C302.13 364.304 299.116 364.192 296.661 364.192C294.093 364.192 291.805 364.471 289.796 365.03C287.787 365.476 286.224 366.257 285.108 367.373C284.104 368.49 283.601 370.164 283.601 372.396C283.601 373.959 284.048 375.243 284.941 376.247C285.834 377.252 287.508 378.145 289.964 378.926C292.531 379.596 296.214 380.265 301.014 380.935C307.934 381.94 313.459 383.335 317.589 385.121C321.719 386.907 324.677 389.474 326.462 392.822C328.36 396.171 329.309 400.691 329.309 406.384C329.309 416.541 326.295 423.685 320.268 427.814C314.352 431.833 305.869 433.842 294.819 433.842ZM343.977 432V347.952H366.244V432H343.977ZM343.977 334.558V315.471H366.412V334.558H343.977ZM421.853 470.341C412.924 470.341 405.446 469.671 399.418 468.331C393.503 466.992 389.038 464.536 386.024 460.965C383.011 457.505 381.504 452.482 381.504 445.896C381.504 442.994 381.894 440.371 382.676 438.027C383.569 435.795 384.908 433.674 386.694 431.665C388.591 429.656 390.935 427.591 393.726 425.47C392.163 424.354 390.88 422.736 389.875 420.615C388.982 418.383 388.536 415.983 388.536 413.416C388.536 412.076 389.317 410.123 390.88 407.556C392.554 404.877 394.172 402.533 395.735 400.524C393.503 399.519 391.382 398.068 389.373 396.171C387.364 394.162 385.689 391.483 384.35 388.134C383.122 384.786 382.508 380.489 382.508 375.243C382.508 364.639 385.522 357.161 391.549 352.807C397.688 348.343 406.394 346.11 417.668 346.11C420.57 346.11 423.695 346.334 427.044 346.78C430.392 347.227 433.071 347.673 435.08 348.119L462.371 347.617V362.686L449.646 362.518C450.651 363.858 451.544 365.588 452.325 367.708C453.218 369.717 453.664 372.229 453.664 375.243C453.664 382.944 452.325 388.916 449.646 393.157C447.079 397.399 443.172 400.356 437.926 402.031C432.68 403.593 426.039 404.375 418.003 404.375C417.11 404.375 415.882 404.319 414.319 404.207C412.757 403.984 411.473 403.817 410.469 403.705C410.022 404.821 409.576 406.105 409.129 407.556C408.683 408.895 408.459 409.844 408.459 410.402C408.459 411.853 408.906 412.969 409.799 413.751C410.803 414.532 412.757 415.09 415.659 415.425C418.672 415.648 423.193 415.76 429.22 415.76C437.145 415.76 443.451 416.485 448.139 417.936C452.939 419.387 456.343 421.954 458.352 425.638C460.362 429.321 461.366 434.511 461.366 441.208C461.366 451.142 457.85 458.453 450.818 463.141C443.898 467.941 434.243 470.341 421.853 470.341ZM420.682 453.765C427.602 453.765 432.569 452.928 435.582 451.254C438.708 449.691 440.27 447.068 440.27 443.385C440.27 440.483 439.712 438.362 438.596 437.023C437.592 435.683 435.861 434.79 433.406 434.344C430.95 434.009 427.602 433.842 423.36 433.842C422.244 433.842 420.905 433.786 419.342 433.674C417.779 433.674 416.161 433.618 414.487 433.507C412.924 433.507 411.473 433.451 410.134 433.339C408.906 433.228 408.013 433.172 407.455 433.172C404.999 434.846 403.325 436.353 402.432 437.692C401.539 439.144 401.093 441.041 401.093 443.385C401.093 445.952 401.707 447.961 402.934 449.412C404.162 450.975 406.171 452.091 408.962 452.761C411.864 453.431 415.77 453.765 420.682 453.765ZM417.835 388.637C422.97 388.637 426.597 387.632 428.718 385.623C430.95 383.502 432.066 380.042 432.066 375.243C432.066 370.443 430.95 366.983 428.718 364.862C426.597 362.741 422.97 361.681 417.835 361.681C412.924 361.681 409.352 362.741 407.12 364.862C404.999 366.983 403.939 370.443 403.939 375.243C403.939 380.042 404.999 383.502 407.12 385.623C409.352 387.632 412.924 388.637 417.835 388.637ZM474.124 432V347.952H496.392V353.31C498.178 352.194 500.355 351.133 502.922 350.129C505.489 349.012 508.168 348.064 510.958 347.282C513.86 346.501 516.651 346.11 519.33 346.11C527.143 346.11 533.17 347.506 537.412 350.296C541.765 352.975 544.834 357.44 546.62 363.69C548.406 369.829 549.299 378.089 549.299 388.469V432H526.864V389.641C526.864 383.837 526.529 379.205 525.859 375.745C525.189 372.173 523.906 369.606 522.008 368.043C520.111 366.481 517.32 365.699 513.637 365.699C511.628 365.699 509.507 365.922 507.275 366.369C505.154 366.704 503.089 367.206 501.08 367.876C499.183 368.545 497.62 369.215 496.392 369.885V432H474.124Z" fill="#FF2002"/>
<path d="M602.909 432V317.648H645.937C655.425 317.648 663.294 318.987 669.544 321.666C675.795 324.233 680.483 328.419 683.608 334.223C686.845 340.027 688.463 347.785 688.463 357.495C688.463 367.206 686.845 375.131 683.608 381.27C680.483 387.297 675.795 391.762 669.544 394.664C663.294 397.454 655.425 398.85 645.937 398.85H626.013V432H602.909ZM626.013 379.93H645.268C652.299 379.93 657.322 378.089 660.336 374.405C663.35 370.61 664.856 365.03 664.856 357.663C664.856 350.073 663.35 344.659 660.336 341.422C657.322 338.186 652.299 336.567 645.268 336.567H626.013V379.93ZM723.892 433.842C715.186 433.842 708.601 431.665 704.136 427.312C699.783 422.847 697.606 416.15 697.606 407.221C697.606 400.97 698.723 396.115 700.955 392.655C703.187 389.083 706.48 386.516 710.833 384.953C715.298 383.279 720.711 382.274 727.074 381.94L747.499 380.098V375.075C747.499 371.057 746.495 368.266 744.486 366.704C742.477 365.03 739.519 364.192 735.612 364.192C732.487 364.192 728.859 364.304 724.73 364.527C720.711 364.75 716.693 365.03 712.675 365.364C708.768 365.699 705.364 366.034 702.462 366.369L701.792 350.631C704.694 349.961 708.154 349.291 712.173 348.622C716.302 347.84 720.6 347.227 725.064 346.78C729.529 346.334 733.659 346.11 737.454 346.11C744.597 346.11 750.569 347.003 755.369 348.789C760.168 350.575 763.796 353.533 766.251 357.663C768.707 361.681 769.935 367.15 769.935 374.071V412.411C770.158 413.974 770.995 415.202 772.446 416.095C773.897 416.876 775.571 417.434 777.469 417.769L776.967 433.172C774.288 433.284 771.665 433.339 769.097 433.339C766.53 433.339 764.354 433.172 762.568 432.837C760.001 432.502 757.768 431.833 755.871 430.828C754.085 429.823 752.634 428.763 751.518 427.647C749.732 428.428 747.332 429.321 744.318 430.326C741.305 431.33 738.012 432.167 734.44 432.837C730.98 433.507 727.464 433.842 723.892 433.842ZM729.25 417.266C731.371 417.266 733.603 417.043 735.947 416.597C738.291 416.15 740.468 415.648 742.477 415.09C744.597 414.42 746.272 413.806 747.499 413.248V393.994L730.422 395.501C726.739 395.836 724.06 396.952 722.386 398.85C720.823 400.635 720.042 403.203 720.042 406.551C720.042 409.9 720.767 412.523 722.218 414.42C723.781 416.318 726.125 417.266 729.25 417.266ZM819.064 434.009C812.925 434.009 807.958 433.116 804.163 431.33C800.368 429.544 797.633 426.475 795.959 422.122C794.396 417.657 793.615 411.462 793.615 403.538V366.536H783.737V347.952H793.615V325.684H815.883V347.952H837.313V366.536H815.883V397.678C815.883 402.031 816.05 405.435 816.385 407.891C816.831 410.346 817.724 412.076 819.064 413.081C820.403 414.085 822.468 414.588 825.258 414.588C826.04 414.588 827.212 414.532 828.774 414.42C830.337 414.309 831.9 414.197 833.462 414.085C835.025 413.974 836.309 413.862 837.313 413.751L837.983 431.665C835.304 432.112 832.067 432.614 828.272 433.172C824.589 433.73 821.519 434.009 819.064 434.009ZM879.232 434.009C873.094 434.009 868.127 433.116 864.332 431.33C860.537 429.544 857.802 426.475 856.128 422.122C854.565 417.657 853.784 411.462 853.784 403.538V366.536H843.906V347.952H853.784V325.684H876.051V347.952H897.482V366.536H876.051V397.678C876.051 402.031 876.219 405.435 876.554 407.891C877 410.346 877.893 412.076 879.232 413.081C880.572 414.085 882.637 414.588 885.427 414.588C886.209 414.588 887.381 414.532 888.943 414.42C890.506 414.309 892.068 414.197 893.631 414.085C895.194 413.974 896.477 413.862 897.482 413.751L898.152 431.665C895.473 432.112 892.236 432.614 888.441 433.172C884.758 433.73 881.688 434.009 879.232 434.009ZM943.922 433.842C934.658 433.842 927.291 432.279 921.822 429.154C916.464 426.028 912.613 421.285 910.269 414.923C907.925 408.56 906.753 400.58 906.753 390.981C906.753 380.6 908.204 372.117 911.106 365.532C914.12 358.946 918.473 354.091 924.165 350.966C929.858 347.729 936.89 346.11 945.261 346.11C957.651 346.11 966.971 349.236 973.221 355.486C979.584 361.737 982.765 371.615 982.765 385.121L981.76 397.51H929.188C929.3 403.761 930.583 408.449 933.039 411.574C935.495 414.699 939.736 416.262 945.763 416.262C949.224 416.262 953.019 416.206 957.148 416.095C961.278 415.871 965.352 415.648 969.371 415.425C973.5 415.202 977.016 414.978 979.918 414.755L980.421 430.326C977.63 430.772 974.114 431.274 969.873 431.833C965.631 432.391 961.222 432.837 956.646 433.172C952.181 433.618 947.94 433.842 943.922 433.842ZM929.188 383.279H960.497C960.497 375.689 959.269 370.387 956.814 367.373C954.47 364.36 950.619 362.853 945.261 362.853C940.015 362.853 935.997 364.416 933.207 367.541C930.528 370.666 929.188 375.912 929.188 383.279ZM997.571 432V347.952H1019.84V357.83C1021.74 356.379 1024.08 354.872 1026.87 353.31C1029.66 351.635 1032.68 350.129 1035.91 348.789C1039.26 347.338 1042.44 346.389 1045.46 345.943V367.541C1042.55 367.987 1039.48 368.769 1036.25 369.885C1033.01 370.889 1029.94 372.006 1027.04 373.233C1024.25 374.461 1021.85 375.577 1019.84 376.582V432H997.571ZM1057.09 432V347.952H1079.35V353.31C1081.14 352.194 1083.32 351.133 1085.88 350.129C1088.45 349.012 1091.13 348.064 1093.92 347.282C1096.82 346.501 1099.61 346.11 1102.29 346.11C1110.1 346.11 1116.13 347.506 1120.37 350.296C1124.73 352.975 1127.8 357.44 1129.58 363.69C1131.37 369.829 1132.26 378.089 1132.26 388.469V432H1109.83V389.641C1109.83 383.837 1109.49 379.205 1108.82 375.745C1108.15 372.173 1106.87 369.606 1104.97 368.043C1103.07 366.481 1100.28 365.699 1096.6 365.699C1094.59 365.699 1092.47 365.922 1090.24 366.369C1088.12 366.704 1086.05 367.206 1084.04 367.876C1082.14 368.545 1080.58 369.215 1079.35 369.885V432H1057.09ZM1179.93 433.842C1176.25 433.842 1172.29 433.618 1168.05 433.172C1163.92 432.837 1160.01 432.391 1156.33 431.833C1152.75 431.274 1149.68 430.716 1147.12 430.158L1147.79 413.583C1150.69 413.918 1153.93 414.309 1157.5 414.755C1161.18 415.202 1164.75 415.592 1168.21 415.927C1171.78 416.15 1174.69 416.262 1176.92 416.262C1180.27 416.262 1183 415.983 1185.12 415.425C1187.36 414.867 1189.03 413.974 1190.15 412.746C1191.26 411.407 1191.82 409.509 1191.82 407.054C1191.82 405.156 1191.32 403.705 1190.31 402.7C1189.42 401.696 1187.63 400.859 1184.96 400.189C1182.39 399.408 1178.59 398.626 1173.57 397.845C1167.32 396.952 1162.13 395.669 1158 393.994C1153.98 392.32 1151.02 389.864 1149.13 386.628C1147.23 383.279 1146.28 378.758 1146.28 373.066C1146.28 366.146 1147.79 360.732 1150.8 356.826C1153.81 352.919 1157.83 350.184 1162.86 348.622C1167.88 346.948 1173.35 346.11 1179.26 346.11C1183.17 346.11 1187.19 346.334 1191.32 346.78C1195.45 347.115 1199.35 347.561 1203.04 348.119C1206.72 348.678 1209.79 349.236 1212.25 349.794L1211.58 366.704C1208.79 366.257 1205.55 365.867 1201.87 365.532C1198.18 365.085 1194.5 364.75 1190.82 364.527C1187.24 364.304 1184.23 364.192 1181.77 364.192C1179.21 364.192 1176.92 364.471 1174.91 365.03C1172.9 365.476 1171.34 366.257 1170.22 367.373C1169.22 368.49 1168.71 370.164 1168.71 372.396C1168.71 373.959 1169.16 375.243 1170.05 376.247C1170.95 377.252 1172.62 378.145 1175.08 378.926C1177.64 379.596 1181.33 380.265 1186.13 380.935C1193.05 381.94 1198.57 383.335 1202.7 385.121C1206.83 386.907 1209.79 389.474 1211.58 392.822C1213.47 396.171 1214.42 400.691 1214.42 406.384C1214.42 416.541 1211.41 423.685 1205.38 427.814C1199.47 431.833 1190.98 433.842 1179.93 433.842Z" fill="black"/>
<path d="M602.909 432H594.816V440.093H602.909V432ZM602.909 317.648V309.555H594.816V317.648H602.909ZM669.544 321.666L666.356 329.105L666.413 329.129L666.47 329.152L669.544 321.666ZM683.608 334.223L676.483 338.06L676.511 338.113L676.54 338.165L683.608 334.223ZM683.608 381.27L676.449 377.495L676.437 377.52L676.424 377.545L683.608 381.27ZM669.544 394.664L672.843 402.054L672.898 402.029L672.952 402.004L669.544 394.664ZM626.013 398.85V390.757H617.921V398.85H626.013ZM626.013 432V440.093H634.106V432H626.013ZM626.013 379.93H617.921V388.023H626.013V379.93ZM660.336 374.405L666.599 379.53L666.637 379.484L666.673 379.438L660.336 374.405ZM660.336 341.422L654.413 346.937L654.413 346.937L660.336 341.422ZM626.013 336.567V328.474H617.921V336.567H626.013ZM611.001 432V317.648H594.816V432H611.001ZM602.909 325.741H645.937V309.555H602.909V325.741ZM645.937 325.741C654.732 325.741 661.428 326.992 666.356 329.105L672.732 314.228C665.16 310.982 656.117 309.555 645.937 309.555V325.741ZM666.47 329.152C671.036 331.027 674.269 333.949 676.483 338.06L690.734 330.386C686.697 322.89 680.554 317.439 672.619 314.18L666.47 329.152ZM676.54 338.165C678.865 342.334 680.371 348.571 680.371 357.495H696.556C696.556 346.998 694.825 337.72 690.676 330.281L676.54 338.165ZM680.371 357.495C680.371 366.386 678.877 372.891 676.449 377.495L690.767 385.044C694.813 377.371 696.556 368.026 696.556 357.495H680.371ZM676.424 377.545C674.136 381.957 670.789 385.163 666.136 387.324L672.952 402.004C680.801 398.36 686.83 392.638 690.793 384.995L676.424 377.545ZM666.245 387.274C661.352 389.459 654.699 390.757 645.937 390.757V406.942C656.151 406.942 665.236 405.45 672.843 402.054L666.245 387.274ZM645.937 390.757H626.013V406.942H645.937V390.757ZM617.921 398.85V432H634.106V398.85H617.921ZM626.013 423.907H602.909V440.093H626.013V423.907ZM626.013 388.023H645.268V371.838H626.013V388.023ZM645.268 388.023C653.536 388.023 661.427 385.852 666.599 379.53L654.072 369.281C653.217 370.326 651.063 371.838 645.268 371.838V388.023ZM666.673 379.438C671.281 373.636 672.949 365.952 672.949 357.663H656.764C656.764 364.107 655.418 367.585 653.998 369.373L666.673 379.438ZM672.949 357.663C672.949 349.38 671.375 341.403 666.259 335.908L654.413 346.937C655.324 347.916 656.764 350.765 656.764 357.663H672.949ZM666.259 335.908C661.013 330.273 653.253 328.474 645.268 328.474V344.66C651.346 344.66 653.631 346.098 654.413 346.937L666.259 335.908ZM645.268 328.474H626.013V344.66H645.268V328.474ZM617.921 336.567V379.93H634.106V336.567H617.921ZM704.136 427.312L698.342 432.962L698.413 433.035L698.487 433.107L704.136 427.312ZM700.955 392.655L707.755 397.042L707.787 396.993L707.818 396.944L700.955 392.655ZM710.833 384.953L713.567 392.57L713.621 392.551L713.675 392.531L710.833 384.953ZM727.074 381.94L727.499 390.021L727.65 390.013L727.8 390L727.074 381.94ZM747.499 380.098L748.226 388.158L755.592 387.494V380.098H747.499ZM744.486 366.704L739.305 372.921L739.41 373.008L739.517 373.092L744.486 366.704ZM724.73 364.527L724.293 356.446L724.281 356.447L724.73 364.527ZM712.675 365.364L712.003 357.3L711.993 357.3L711.984 357.301L712.675 365.364ZM702.462 366.369L694.376 366.713L694.746 375.406L703.389 374.408L702.462 366.369ZM701.792 350.631L699.972 342.745L693.421 344.257L693.707 350.975L701.792 350.631ZM712.173 348.622L713.503 356.604L713.59 356.59L713.677 356.573L712.173 348.622ZM725.064 346.78L724.259 338.727L724.259 338.727L725.064 346.78ZM755.369 348.789L752.546 356.374L752.546 356.374L755.369 348.789ZM766.251 357.663L759.295 361.799L759.32 361.841L759.346 361.883L766.251 357.663ZM769.935 412.411H761.842V412.986L761.923 413.556L769.935 412.411ZM772.446 416.095L768.205 422.987L768.404 423.109L768.609 423.22L772.446 416.095ZM777.469 417.769L785.557 418.033L785.786 411.019L778.875 409.799L777.469 417.769ZM776.967 433.172L777.303 441.258L784.81 440.945L785.055 433.436L776.967 433.172ZM762.568 432.837L764.059 424.883L763.838 424.841L763.615 424.812L762.568 432.837ZM755.871 430.828L751.903 437.881L751.993 437.932L752.084 437.98L755.871 430.828ZM751.518 427.647L757.24 421.924L753.334 418.019L748.274 420.233L751.518 427.647ZM744.318 430.326L746.878 438.003L746.878 438.003L744.318 430.326ZM734.44 432.837L732.949 424.883L732.926 424.887L732.902 424.892L734.44 432.837ZM735.947 416.597L734.433 408.647L734.433 408.647L735.947 416.597ZM742.477 415.09L744.643 422.887L744.779 422.85L744.914 422.807L742.477 415.09ZM747.499 413.248L750.848 420.616L755.592 418.459V413.248H747.499ZM747.499 393.994H755.592V385.156L746.788 385.933L747.499 393.994ZM730.422 395.501L729.711 387.44L729.7 387.441L729.689 387.442L730.422 395.501ZM722.386 398.85L716.317 393.495L716.306 393.508L716.295 393.52L722.386 398.85ZM722.218 414.42L715.79 419.336L715.878 419.452L715.971 419.565L722.218 414.42ZM723.892 425.749C716.451 425.749 712.225 423.896 709.786 421.518L698.487 433.107C704.976 439.434 713.922 441.934 723.892 441.934V425.749ZM709.931 421.662C707.585 419.257 705.699 414.954 705.699 407.221H689.514C689.514 417.347 691.981 426.438 698.342 432.962L709.931 421.662ZM705.699 407.221C705.699 401.776 706.698 398.682 707.755 397.042L694.155 388.268C690.748 393.548 689.514 400.164 689.514 407.221H705.699ZM707.818 396.944C708.991 395.067 710.747 393.583 713.567 392.57L708.099 377.336C702.213 379.449 697.384 383.099 694.092 388.366L707.818 396.944ZM713.675 392.531C717.154 391.226 721.704 390.326 727.499 390.021L726.648 373.858C719.719 374.223 713.442 375.332 707.992 377.376L713.675 392.531ZM727.8 390L748.226 388.158L746.773 372.038L726.347 373.879L727.8 390ZM755.592 380.098V375.075H739.407V380.098H755.592ZM755.592 375.075C755.592 370.017 754.353 364.126 749.454 360.316L739.517 373.092C739.124 372.786 739.061 372.514 739.132 372.71C739.227 372.975 739.407 373.691 739.407 375.075H755.592ZM749.667 360.487C745.635 357.127 740.51 356.1 735.612 356.1V372.285C737.011 372.285 737.958 372.438 738.557 372.607C738.848 372.69 739.037 372.77 739.149 372.827C739.259 372.883 739.302 372.918 739.305 372.921L749.667 360.487ZM735.612 356.1C732.304 356.1 728.525 356.218 724.293 356.446L725.166 372.608C729.194 372.391 732.67 372.285 735.612 372.285V356.1ZM724.281 356.447C720.188 356.674 716.095 356.959 712.003 357.3L713.347 373.429C717.291 373.101 721.235 372.827 725.178 372.608L724.281 356.447ZM711.984 357.301C708.023 357.641 704.536 357.983 701.534 358.329L703.389 374.408C706.192 374.085 709.514 373.758 713.366 373.428L711.984 357.301ZM710.547 366.025L709.878 350.287L693.707 350.975L694.376 366.713L710.547 366.025ZM703.612 358.516C706.305 357.895 709.594 357.256 713.503 356.604L710.842 340.639C706.715 341.327 703.083 342.028 699.972 342.745L703.612 358.516ZM713.677 356.573C717.56 355.839 721.624 355.257 725.87 354.833L724.259 338.727C719.576 339.196 715.044 339.842 710.668 340.67L713.677 356.573ZM725.87 354.833C730.113 354.408 733.971 354.203 737.454 354.203V338.018C733.347 338.018 728.945 338.259 724.259 338.727L725.87 354.833ZM737.454 354.203C743.986 354.203 748.93 355.028 752.546 356.374L758.191 341.204C752.208 338.978 745.209 338.018 737.454 338.018V354.203ZM752.546 356.374C755.737 357.561 757.848 359.365 759.295 361.799L773.207 353.527C769.743 347.701 764.599 343.589 758.191 341.204L752.546 356.374ZM759.346 361.883C760.742 364.168 761.842 367.984 761.842 374.071H778.027C778.027 366.317 776.671 359.194 773.157 353.443L759.346 361.883ZM761.842 374.071V412.411H778.027V374.071H761.842ZM761.923 413.556C762.516 417.706 764.89 420.947 768.205 422.987L776.687 409.202C776.79 409.266 777.106 409.489 777.416 409.945C777.738 410.416 777.894 410.902 777.946 411.267L761.923 413.556ZM768.609 423.22C770.936 424.473 773.455 425.278 776.062 425.738L778.875 409.799C777.687 409.589 776.858 409.279 776.283 408.969L768.609 423.22ZM769.38 417.505L768.878 432.908L785.055 433.436L785.557 418.033L769.38 417.505ZM776.63 425.086C774.058 425.193 771.548 425.247 769.097 425.247V441.432C771.782 441.432 774.517 441.374 777.303 441.258L776.63 425.086ZM769.097 425.247C766.844 425.247 765.198 425.097 764.059 424.883L761.076 440.791C763.509 441.247 766.217 441.432 769.097 441.432V425.247ZM763.615 424.812C761.814 424.577 760.545 424.146 759.657 423.676L752.084 437.98C754.991 439.519 758.188 440.427 761.521 440.862L763.615 424.812ZM759.838 423.775C758.515 423.03 757.706 422.391 757.24 421.924L745.795 433.369C747.561 435.135 749.655 436.617 751.903 437.881L759.838 423.775ZM748.274 420.233C746.807 420.875 744.665 421.68 741.759 422.648L746.878 438.003C749.999 436.963 752.657 435.982 754.761 435.061L748.274 420.233ZM741.759 422.648C739.14 423.521 736.209 424.272 732.949 424.883L735.932 440.791C739.815 440.063 743.469 439.139 746.878 438.003L741.759 422.648ZM732.902 424.892C729.956 425.462 726.955 425.749 723.892 425.749V441.934C727.973 441.934 732.004 441.552 735.978 440.782L732.902 424.892ZM729.25 425.359C731.937 425.359 734.679 425.077 737.461 424.547L734.433 408.647C732.527 409.01 730.804 409.174 729.25 409.174V425.359ZM737.461 424.547C739.994 424.064 742.391 423.513 744.643 422.887L740.311 407.292C738.545 407.783 736.588 408.236 734.433 408.647L737.461 424.547ZM744.914 422.807C747.174 422.093 749.196 421.367 750.848 420.616L744.151 405.881C743.347 406.246 742.021 406.747 740.04 407.373L744.914 422.807ZM755.592 413.248V393.994H739.407V413.248H755.592ZM746.788 385.933L729.711 387.44L731.133 403.563L748.211 402.056L746.788 385.933ZM729.689 387.442C724.888 387.878 719.877 389.461 716.317 393.495L728.454 404.204C728.242 404.444 728.589 403.794 731.155 403.561L729.689 387.442ZM716.295 393.52C712.998 397.289 711.949 402.042 711.949 406.551H728.134C728.134 404.363 728.648 403.982 728.476 404.179L716.295 393.52ZM711.949 406.551C711.949 410.979 712.901 415.558 715.79 419.336L728.647 409.504C728.634 409.487 728.134 408.821 728.134 406.551H711.949ZM715.971 419.565C719.473 423.817 724.418 425.359 729.25 425.359V409.174C728.49 409.174 728.193 409.057 728.184 409.053C728.184 409.053 728.231 409.073 728.302 409.125C728.374 409.177 728.43 409.233 728.465 409.276L715.971 419.565ZM804.163 431.33L800.717 438.653L800.717 438.653L804.163 431.33ZM795.959 422.122L788.32 424.795L788.361 424.912L788.406 425.027L795.959 422.122ZM793.615 366.536H801.708V358.444H793.615V366.536ZM783.737 366.536H775.644V374.629H783.737V366.536ZM783.737 347.952V339.859H775.644V347.952H783.737ZM793.615 347.952V356.045H801.708V347.952H793.615ZM793.615 325.684V317.592H785.522V325.684H793.615ZM815.883 325.684H823.975V317.592H815.883V325.684ZM815.883 347.952H807.79V356.045H815.883V347.952ZM837.313 347.952H845.406V339.859H837.313V347.952ZM837.313 366.536V374.629H845.406V366.536H837.313ZM815.883 366.536V358.444H807.79V366.536H815.883ZM816.385 407.891L808.366 408.984L808.391 409.162L808.423 409.338L816.385 407.891ZM819.064 413.081L814.208 419.555L814.208 419.555L819.064 413.081ZM833.462 414.085L832.886 406.013L832.886 406.013L833.462 414.085ZM837.313 413.751L845.4 413.448L845.075 404.746L836.419 405.707L837.313 413.751ZM837.983 431.665L839.313 439.648L846.336 438.477L846.07 431.363L837.983 431.665ZM828.272 433.172L827.095 425.165L827.077 425.168L827.06 425.171L828.272 433.172ZM819.064 425.916C813.608 425.916 809.945 425.107 807.609 424.008L800.717 438.653C805.971 441.125 812.242 442.102 819.064 442.102V425.916ZM807.609 424.008C805.919 423.213 804.529 421.86 803.512 419.217L788.406 425.027C790.737 431.09 794.817 435.876 800.717 438.653L807.609 424.008ZM803.597 419.448C802.471 416.23 801.708 411.08 801.708 403.538H785.522C785.522 411.844 786.322 419.084 788.32 424.795L803.597 419.448ZM801.708 403.538V366.536H785.522V403.538H801.708ZM793.615 358.444H783.737V374.629H793.615V358.444ZM791.83 366.536V347.952H775.644V366.536H791.83ZM783.737 356.045H793.615V339.859H783.737V356.045ZM801.708 347.952V325.684H785.522V347.952H801.708ZM793.615 333.777H815.883V317.592H793.615V333.777ZM807.79 325.684V347.952H823.975V325.684H807.79ZM815.883 356.045H837.313V339.859H815.883V356.045ZM829.22 347.952V366.536H845.406V347.952H829.22ZM837.313 358.444H815.883V374.629H837.313V358.444ZM807.79 366.536V397.678H823.975V366.536H807.79ZM807.79 397.678C807.79 402.167 807.959 405.994 808.366 408.984L824.403 406.797C824.142 404.876 823.975 401.894 823.975 397.678H807.79ZM808.423 409.338C809.059 412.836 810.593 416.843 814.208 419.555L823.919 406.607C824.137 406.769 824.299 406.935 824.412 407.074C824.523 407.209 824.572 407.302 824.581 407.318C824.588 407.333 824.559 407.278 824.511 407.13C824.464 406.982 824.404 406.757 824.347 406.443L808.423 409.338ZM814.208 419.555C817.61 422.106 821.779 422.68 825.258 422.68V406.495C824.319 406.495 823.776 406.407 823.53 406.347C823.286 406.288 823.51 406.3 823.919 406.607L814.208 419.555ZM825.258 422.68C826.339 422.68 827.746 422.607 829.351 422.492L828.198 406.348C826.677 406.457 825.74 406.495 825.258 406.495V422.68ZM829.351 422.492C829.698 422.468 831.348 422.35 831.695 422.325C831.825 422.316 832.737 422.251 832.867 422.241C832.997 422.232 833.909 422.167 834.039 422.158L832.886 406.013C832.105 406.069 832.495 406.041 831.714 406.097C830.933 406.153 831.323 406.125 830.542 406.181C830.482 406.185 830.528 406.182 830.469 406.186C830.42 406.189 830.444 406.188 830.395 406.191C830.336 406.195 830.382 406.192 830.322 406.196C830.262 406.201 830.309 406.197 830.249 406.202C830.189 406.206 830.235 406.203 830.176 406.207C830.127 406.21 830.151 406.209 830.102 406.212C830.043 406.216 830.089 406.213 830.029 406.217C829.969 406.221 830.016 406.218 829.956 406.222C829.896 406.227 829.942 406.223 829.883 406.228C829.834 406.231 829.858 406.229 829.809 406.233C829.75 406.237 829.796 406.234 829.736 406.238C829.676 406.242 829.723 406.239 829.663 406.243C829.603 406.248 829.649 406.244 829.59 406.249C829.541 406.252 829.565 406.25 829.516 406.254C829.457 406.258 829.503 406.255 829.443 406.259C829.383 406.263 829.43 406.26 829.37 406.264C829.31 406.269 829.356 406.265 829.297 406.27C829.248 406.273 829.272 406.271 829.223 406.275C829.164 406.279 829.21 406.276 829.15 406.28C829.09 406.284 829.137 406.281 829.077 406.285C829.017 406.29 829.063 406.286 829.004 406.29C828.955 406.294 828.979 406.292 828.93 406.296C828.871 406.3 828.917 406.297 828.857 406.301C828.797 406.305 828.844 406.302 828.784 406.306C828.724 406.31 828.77 406.307 828.711 406.311C828.662 406.315 828.686 406.313 828.637 406.317C828.578 406.321 828.624 406.318 828.564 406.322C828.504 406.326 828.551 406.323 828.491 406.327C828.431 406.331 828.477 406.328 828.418 406.332C828.369 406.336 828.393 406.334 828.344 406.338C828.285 406.342 828.331 406.339 828.271 406.343C828.211 406.347 828.258 406.344 828.198 406.348L829.351 422.492ZM834.039 422.158C835.657 422.042 837.056 421.922 838.207 421.794L836.419 405.707C835.561 405.803 834.393 405.906 832.886 406.013L834.039 422.158ZM829.226 414.053L829.896 431.967L846.07 431.363L845.4 413.448L829.226 414.053ZM836.652 423.682C834.04 424.118 830.858 424.612 827.095 425.165L829.45 441.179C833.277 440.616 836.568 440.105 839.313 439.648L836.652 423.682ZM827.06 425.171C823.595 425.695 820.963 425.916 819.064 425.916V442.102C822.075 442.102 825.582 441.765 829.485 441.173L827.06 425.171ZM864.332 431.33L860.886 438.653L860.886 438.653L864.332 431.33ZM856.128 422.122L848.489 424.795L848.53 424.912L848.574 425.027L856.128 422.122ZM853.784 366.536H861.876V358.444H853.784V366.536ZM843.906 366.536H835.813V374.629H843.906V366.536ZM843.906 347.952V339.859H835.813V347.952H843.906ZM853.784 347.952V356.045H861.876V347.952H853.784ZM853.784 325.684V317.592H845.691V325.684H853.784ZM876.051 325.684H884.144V317.592H876.051V325.684ZM876.051 347.952H867.959V356.045H876.051V347.952ZM897.482 347.952H905.575V339.859H897.482V347.952ZM897.482 366.536V374.629H905.575V366.536H897.482ZM876.051 366.536V358.444H867.959V366.536H876.051ZM876.554 407.891L868.535 408.984L868.559 409.162L868.591 409.338L876.554 407.891ZM879.232 413.081L874.377 419.555L874.377 419.555L879.232 413.081ZM893.631 414.085L893.055 406.013L893.055 406.013L893.631 414.085ZM897.482 413.751L905.569 413.448L905.244 404.746L896.588 405.707L897.482 413.751ZM898.152 431.665L899.482 439.648L906.505 438.477L906.239 431.363L898.152 431.665ZM888.441 433.172L887.263 425.165L887.246 425.168L887.229 425.171L888.441 433.172ZM879.232 425.916C873.776 425.916 870.114 425.107 867.777 424.008L860.886 438.653C866.14 441.125 872.411 442.102 879.232 442.102V425.916ZM867.777 424.008C866.088 423.213 864.698 421.86 863.681 419.217L848.574 425.027C850.906 431.09 854.985 435.876 860.886 438.653L867.777 424.008ZM863.766 419.448C862.64 416.23 861.876 411.08 861.876 403.538H845.691C845.691 411.844 846.49 419.084 848.489 424.795L863.766 419.448ZM861.876 403.538V366.536H845.691V403.538H861.876ZM853.784 358.444H843.906V374.629H853.784V358.444ZM851.998 366.536V347.952H835.813V366.536H851.998ZM843.906 356.045H853.784V339.859H843.906V356.045ZM861.876 347.952V325.684H845.691V347.952H861.876ZM853.784 333.777H876.051V317.592H853.784V333.777ZM867.959 325.684V347.952H884.144V325.684H867.959ZM876.051 356.045H897.482V339.859H876.051V356.045ZM889.389 347.952V366.536H905.575V347.952H889.389ZM897.482 358.444H876.051V374.629H897.482V358.444ZM867.959 366.536V397.678H884.144V366.536H867.959ZM867.959 397.678C867.959 402.167 868.127 405.994 868.535 408.984L884.572 406.797C884.31 404.876 884.144 401.894 884.144 397.678H867.959ZM868.591 409.338C869.227 412.836 870.761 416.843 874.377 419.555L884.088 406.607C884.305 406.769 884.468 406.935 884.581 407.074C884.691 407.209 884.741 407.302 884.75 407.318C884.757 407.333 884.727 407.278 884.68 407.13C884.633 406.982 884.573 406.757 884.516 406.443L868.591 409.338ZM874.377 419.555C877.778 422.106 881.948 422.68 885.427 422.68V406.495C884.488 406.495 883.945 406.407 883.698 406.347C883.455 406.288 883.679 406.3 884.088 406.607L874.377 419.555ZM885.427 422.68C886.508 422.68 887.915 422.607 889.52 422.492L888.367 406.348C886.846 406.457 885.909 406.495 885.427 406.495V422.68ZM889.52 422.492C889.867 422.468 891.517 422.35 891.864 422.325C891.994 422.316 892.906 422.251 893.036 422.241C893.166 422.232 894.078 422.167 894.208 422.158L893.055 406.013C892.274 406.069 892.663 406.041 891.883 406.097C891.102 406.153 891.491 406.125 890.711 406.181C890.651 406.185 890.697 406.182 890.637 406.186C890.588 406.189 890.613 406.188 890.564 406.191C890.504 406.195 890.551 406.192 890.491 406.196C890.431 406.201 890.477 406.197 890.418 406.202C890.358 406.206 890.404 406.203 890.344 406.207C890.295 406.21 890.32 406.209 890.271 406.212C890.211 406.216 890.258 406.213 890.198 406.217C890.138 406.221 890.184 406.218 890.125 406.222C890.065 406.227 890.111 406.223 890.051 406.228C890.003 406.231 890.027 406.229 889.978 406.233C889.918 406.237 889.965 406.234 889.905 406.238C889.845 406.242 889.891 406.239 889.832 406.243C889.772 406.248 889.818 406.244 889.758 406.249C889.71 406.252 889.734 406.25 889.685 406.254C889.625 406.258 889.672 406.255 889.612 406.259C889.552 406.263 889.598 406.26 889.539 406.264C889.479 406.269 889.525 406.265 889.465 406.27C889.417 406.273 889.441 406.271 889.392 406.275C889.332 406.279 889.379 406.276 889.319 406.28C889.259 406.284 889.305 406.281 889.246 406.285C889.186 406.29 889.232 406.286 889.172 406.29C889.124 406.294 889.148 406.292 889.099 406.296C889.039 406.3 889.086 406.297 889.026 406.301C888.966 406.305 889.012 406.302 888.953 406.306C888.893 406.31 888.939 406.307 888.879 406.311C888.831 406.315 888.855 406.313 888.806 406.317C888.746 406.321 888.793 406.318 888.733 406.322C888.673 406.326 888.719 406.323 888.66 406.327C888.6 406.331 888.646 406.328 888.586 406.332C888.538 406.336 888.562 406.334 888.513 406.338C888.453 406.342 888.5 406.339 888.44 406.343C888.38 406.347 888.426 406.344 888.367 406.348L889.52 422.492ZM894.208 422.158C895.826 422.042 897.225 421.922 898.376 421.794L896.588 405.707C895.73 405.803 894.562 405.906 893.055 406.013L894.208 422.158ZM889.395 414.053L890.065 431.967L906.239 431.363L905.569 413.448L889.395 414.053ZM896.821 423.682C894.209 424.118 891.026 424.612 887.263 425.165L889.618 441.179C893.445 440.616 896.736 440.105 899.482 439.648L896.821 423.682ZM887.229 425.171C883.764 425.695 881.132 425.916 879.232 425.916V442.102C882.244 442.102 885.751 441.765 889.653 441.173L887.229 425.171ZM921.822 429.154L917.744 436.144L917.775 436.162L917.806 436.18L921.822 429.154ZM910.269 414.923L917.863 412.125L917.863 412.125L910.269 414.923ZM911.106 365.532L903.747 362.164L903.724 362.216L903.701 362.268L911.106 365.532ZM924.165 350.966L928.06 358.06L928.113 358.031L928.166 358.001L924.165 350.966ZM973.221 355.486L967.499 361.209L967.524 361.234L967.55 361.259L973.221 355.486ZM982.765 385.121L990.831 385.775L990.857 385.448V385.121H982.765ZM981.76 397.51V405.603H989.223L989.826 398.164L981.76 397.51ZM929.188 397.51V389.417H920.95L921.097 397.655L929.188 397.51ZM933.039 411.574L939.403 406.574L939.403 406.574L933.039 411.574ZM957.148 416.095L957.367 424.184L957.476 424.181L957.585 424.175L957.148 416.095ZM969.371 415.425L968.934 407.344L968.922 407.344L969.371 415.425ZM979.918 414.755L988.007 414.494L987.734 406.037L979.298 406.686L979.918 414.755ZM980.421 430.326L981.699 438.317L988.739 437.191L988.509 430.065L980.421 430.326ZM969.873 431.833L968.817 423.809L968.817 423.809L969.873 431.833ZM956.646 433.172L956.056 425.101L955.948 425.109L955.841 425.119L956.646 433.172ZM929.188 383.279H921.095V391.372H929.188V383.279ZM960.497 383.279V391.372H968.59V383.279H960.497ZM956.814 367.373L950.426 372.342L950.482 372.414L950.54 372.485L956.814 367.373ZM933.207 367.541L927.17 362.151L927.115 362.212L927.062 362.274L933.207 367.541ZM943.922 425.749C935.448 425.749 929.64 424.301 925.837 422.127L917.806 436.18C924.942 440.258 933.867 441.934 943.922 441.934V425.749ZM925.899 422.163C922.32 420.075 919.622 416.899 917.863 412.125L902.675 417.72C905.604 425.67 910.608 431.982 917.744 436.144L925.899 422.163ZM917.863 412.125C915.955 406.947 914.846 399.99 914.846 390.981H898.66C898.66 401.169 899.895 410.174 902.675 417.72L917.863 412.125ZM914.846 390.981C914.846 381.266 916.217 374.003 918.512 368.795L903.701 362.268C900.191 370.232 898.66 379.935 898.66 390.981H914.846ZM918.465 368.899C920.842 363.705 924.068 360.252 928.06 358.06L920.271 343.872C912.878 347.93 907.398 354.188 903.747 362.164L918.465 368.899ZM928.166 358.001C932.345 355.624 937.91 354.203 945.261 354.203V338.018C935.87 338.018 927.371 339.833 920.165 343.931L928.166 358.001ZM945.261 354.203C956.379 354.203 963.289 356.999 967.499 361.209L978.944 349.764C970.653 341.473 958.923 338.018 945.261 338.018V354.203ZM967.55 361.259C971.723 365.359 974.672 372.684 974.672 385.121H990.857C990.857 370.546 987.445 358.115 978.893 349.713L967.55 361.259ZM974.698 384.467L973.694 396.856L989.826 398.164L990.831 385.775L974.698 384.467ZM981.76 389.417H929.188V405.603H981.76V389.417ZM921.097 397.655C921.223 404.726 922.664 411.468 926.676 416.574L939.403 406.574C938.503 405.429 937.377 402.796 937.28 397.366L921.097 397.655ZM926.676 416.574C931.326 422.492 938.566 424.355 945.763 424.355V408.169C940.907 408.169 939.663 406.906 939.403 406.574L926.676 416.574ZM945.763 424.355C949.309 424.355 953.178 424.298 957.367 424.184L956.93 408.005C952.859 408.115 949.138 408.169 945.763 408.169V424.355ZM957.585 424.175C961.719 423.952 965.797 423.729 969.819 423.505L968.922 407.344C964.908 407.567 960.838 407.791 956.712 408.014L957.585 424.175ZM969.807 423.506C973.975 423.28 977.556 423.053 980.539 422.824L979.298 406.686C976.476 406.903 973.025 407.123 968.934 407.344L969.807 423.506ZM971.83 415.016L972.332 430.587L988.509 430.065L988.007 414.494L971.83 415.016ZM979.142 422.335C976.453 422.765 973.018 423.256 968.817 423.809L970.929 439.856C975.211 439.293 978.807 438.78 981.699 438.317L979.142 422.335ZM968.817 423.809C964.741 424.345 960.488 424.776 956.056 425.101L957.237 441.243C961.957 440.898 966.522 440.436 970.929 439.856L968.817 423.809ZM955.841 425.119C951.613 425.542 947.642 425.749 943.922 425.749V441.934C948.238 441.934 952.75 441.695 957.451 441.225L955.841 425.119ZM929.188 391.372H960.497V375.186H929.188V391.372ZM968.59 383.279C968.59 375.343 967.412 367.569 963.087 362.262L950.54 372.485C951.126 373.206 952.404 376.035 952.404 383.279H968.59ZM963.202 362.405C958.772 356.709 952.051 354.76 945.261 354.76V370.946C949.186 370.946 950.167 372.01 950.426 372.342L963.202 362.405ZM945.261 354.76C938.335 354.76 931.868 356.889 927.17 362.151L939.243 372.931C940.126 371.942 941.696 370.946 945.261 370.946V354.76ZM927.062 362.274C922.456 367.648 921.095 375.348 921.095 383.279H937.281C937.281 376.477 938.599 373.685 939.351 372.808L927.062 362.274ZM997.571 432H989.479V440.093H997.571V432ZM997.571 347.952V339.859H989.479V347.952H997.571ZM1019.84 347.952H1027.93V339.859H1019.84V347.952ZM1019.84 357.83H1011.75V374.207L1024.76 364.259L1019.84 357.83ZM1026.87 353.31L1030.83 360.371L1030.93 360.312L1031.03 360.249L1026.87 353.31ZM1035.91 348.789L1039.01 356.267L1039.07 356.241L1039.13 356.215L1035.91 348.789ZM1045.46 345.943H1053.55V336.563L1044.27 337.938L1045.46 345.943ZM1045.46 367.541L1046.69 375.54L1053.55 374.484V367.541H1045.46ZM1036.25 369.885L1038.65 377.614L1038.77 377.577L1038.88 377.536L1036.25 369.885ZM1027.04 373.233L1023.89 365.78L1023.83 365.803L1023.78 365.826L1027.04 373.233ZM1019.84 376.582L1016.22 369.344L1011.75 371.58V376.582H1019.84ZM1019.84 432V440.093H1027.93V432H1019.84ZM1005.66 432V347.952H989.479V432H1005.66ZM997.571 356.045H1019.84V339.859H997.571V356.045ZM1011.75 347.952V357.83H1027.93V347.952H1011.75ZM1024.76 364.259C1026.27 363.104 1028.27 361.804 1030.83 360.371L1022.92 346.249C1019.9 347.941 1017.21 349.654 1014.92 351.402L1024.76 364.259ZM1031.03 360.249C1033.46 358.795 1036.11 357.465 1039.01 356.267L1032.82 341.311C1029.24 342.792 1025.87 344.475 1022.71 346.37L1031.03 360.249ZM1039.13 356.215C1041.95 354.991 1044.45 354.273 1046.64 353.948L1044.27 337.938C1040.43 338.506 1036.57 339.685 1032.69 341.364L1039.13 356.215ZM1037.36 345.943V367.541H1053.55V345.943H1037.36ZM1044.22 359.542C1040.77 360.073 1037.23 360.985 1033.61 362.234L1038.88 377.536C1041.74 376.552 1044.33 375.902 1046.69 375.54L1044.22 359.542ZM1033.85 362.156C1030.37 363.234 1027.05 364.441 1023.89 365.78L1030.19 380.687C1032.83 379.571 1035.65 378.545 1038.65 377.614L1033.85 362.156ZM1023.78 365.826C1020.91 367.09 1018.38 368.263 1016.22 369.344L1023.46 383.82C1025.32 382.892 1027.59 381.833 1030.3 380.641L1023.78 365.826ZM1011.75 376.582V432H1027.93V376.582H1011.75ZM1019.84 423.907H997.571V440.093H1019.84V423.907ZM1057.09 432H1048.99V440.093H1057.09V432ZM1057.09 347.952V339.859H1048.99V347.952H1057.09ZM1079.35 347.952H1087.45V339.859H1079.35V347.952ZM1079.35 353.31H1071.26V367.911L1083.64 360.172L1079.35 353.31ZM1085.88 350.129L1088.83 357.665L1088.97 357.61L1089.11 357.55L1085.88 350.129ZM1093.92 347.282L1091.82 339.468L1091.78 339.478L1091.74 339.489L1093.92 347.282ZM1120.37 350.296L1115.93 357.057L1116.03 357.124L1116.13 357.188L1120.37 350.296ZM1129.58 363.69L1121.8 365.913L1121.81 365.932L1121.81 365.951L1129.58 363.69ZM1132.26 432V440.093H1140.35V432H1132.26ZM1109.83 432H1101.73V440.093H1109.83V432ZM1108.82 375.745L1100.87 377.236L1100.87 377.259L1100.88 377.283L1108.82 375.745ZM1104.97 368.043L1110.11 361.796L1110.11 361.796L1104.97 368.043ZM1090.24 366.369L1091.5 374.363L1091.66 374.337L1091.82 374.305L1090.24 366.369ZM1084.04 367.876L1081.48 360.198L1081.42 360.221L1081.35 360.244L1084.04 367.876ZM1079.35 369.885L1075.48 362.78L1071.26 365.081V369.885H1079.35ZM1079.35 432V440.093H1087.45V432H1079.35ZM1065.18 432V347.952H1048.99V432H1065.18ZM1057.09 356.045H1079.35V339.859H1057.09V356.045ZM1071.26 347.952V353.31H1087.45V347.952H1071.26ZM1083.64 360.172C1084.9 359.389 1086.6 358.539 1088.83 357.665L1082.93 342.592C1080.03 343.727 1077.38 344.999 1075.06 346.447L1083.64 360.172ZM1089.11 357.55C1091.33 356.587 1093.66 355.76 1096.1 355.075L1091.74 339.489C1088.6 340.367 1085.57 341.438 1082.66 342.707L1089.11 357.55ZM1096.02 355.097C1098.32 354.478 1100.4 354.203 1102.29 354.203V338.018C1098.82 338.018 1095.32 338.524 1091.82 339.468L1096.02 355.097ZM1102.29 354.203C1109.31 354.203 1113.54 355.486 1115.93 357.057L1124.82 343.535C1118.73 339.525 1110.9 338.018 1102.29 338.018V354.203ZM1116.13 357.188C1118.33 358.543 1120.41 361.059 1121.8 365.913L1137.36 361.467C1135.18 353.82 1131.12 347.407 1124.61 343.404L1116.13 357.188ZM1121.81 365.951C1123.29 371.043 1124.17 378.441 1124.17 388.469H1140.35C1140.35 377.737 1139.44 368.615 1137.35 361.43L1121.81 365.951ZM1124.17 388.469V432H1140.35V388.469H1124.17ZM1132.26 423.907H1109.83V440.093H1132.26V423.907ZM1117.92 432V389.641H1101.73V432H1117.92ZM1117.92 389.641C1117.92 383.606 1117.58 378.393 1116.77 374.207L1100.88 377.283C1101.4 380.017 1101.73 384.068 1101.73 389.641H1117.92ZM1116.78 374.253C1115.92 369.681 1114.04 365.026 1110.11 361.796L1099.83 374.29C1099.7 374.185 1100.38 374.665 1100.87 377.236L1116.78 374.253ZM1110.11 361.796C1106.2 358.572 1101.26 357.606 1096.6 357.606V373.792C1099.31 373.792 1099.95 374.389 1099.83 374.29L1110.11 361.796ZM1096.6 357.606C1093.99 357.606 1091.34 357.896 1088.65 358.433L1091.82 374.305C1093.6 373.949 1095.19 373.792 1096.6 373.792V357.606ZM1088.97 358.375C1086.42 358.779 1083.92 359.386 1081.48 360.198L1086.6 375.553C1088.18 375.026 1089.81 374.629 1091.5 374.363L1088.97 358.375ZM1081.35 360.244C1079.2 361.001 1077.21 361.836 1075.48 362.78L1083.23 376.99C1083.95 376.595 1085.08 376.09 1086.74 375.507L1081.35 360.244ZM1071.26 369.885V432H1087.45V369.885H1071.26ZM1079.35 423.907H1057.09V440.093H1079.35V423.907ZM1168.05 433.172L1168.89 425.124L1168.8 425.114L1168.7 425.106L1168.05 433.172ZM1156.33 431.833L1155.08 439.828L1155.09 439.831L1155.11 439.834L1156.33 431.833ZM1147.12 430.158L1139.03 429.832L1138.76 436.623L1145.4 438.066L1147.12 430.158ZM1147.79 413.583L1148.71 405.544L1140.05 404.544L1139.7 413.256L1147.79 413.583ZM1157.5 414.755L1156.49 422.785L1156.51 422.787L1156.52 422.789L1157.5 414.755ZM1168.21 415.927L1167.43 423.982L1167.57 423.996L1167.71 424.004L1168.21 415.927ZM1185.12 415.425L1183.16 407.574L1183.11 407.586L1183.06 407.598L1185.12 415.425ZM1190.15 412.746L1196.13 418.19L1196.25 418.061L1196.36 417.927L1190.15 412.746ZM1190.31 402.7L1184.26 408.077L1184.42 408.255L1184.59 408.423L1190.31 402.7ZM1184.96 400.189L1182.6 407.931L1182.79 407.991L1182.99 408.04L1184.96 400.189ZM1173.57 397.845L1174.81 389.848L1174.76 389.841L1174.71 389.834L1173.57 397.845ZM1158 393.994L1154.89 401.465L1154.92 401.48L1154.96 401.494L1158 393.994ZM1149.13 386.628L1142.09 390.617L1142.11 390.669L1142.14 390.72L1149.13 386.628ZM1150.8 356.826L1157.21 361.769L1157.21 361.769L1150.8 356.826ZM1162.86 348.622L1165.26 356.349L1165.34 356.325L1165.41 356.299L1162.86 348.622ZM1191.32 346.78L1190.45 354.826L1190.56 354.838L1190.66 354.846L1191.32 346.78ZM1203.04 348.119L1204.25 340.118L1204.25 340.118L1203.04 348.119ZM1212.25 349.794L1220.33 350.114L1220.6 343.393L1214.04 341.902L1212.25 349.794ZM1211.58 366.704L1210.3 374.695L1219.3 376.136L1219.66 367.024L1211.58 366.704ZM1201.87 365.532L1200.89 373.566L1201.01 373.58L1201.13 373.591L1201.87 365.532ZM1190.82 364.527L1190.31 372.604L1190.32 372.605L1190.33 372.605L1190.82 364.527ZM1174.91 365.03L1176.67 372.93L1176.87 372.884L1177.08 372.827L1174.91 365.03ZM1170.22 367.373L1164.5 361.651L1164.35 361.802L1164.21 361.96L1170.22 367.373ZM1170.05 376.247L1164.01 381.624L1164.01 381.624L1170.05 376.247ZM1175.08 378.926L1172.62 386.638L1172.83 386.703L1173.03 386.757L1175.08 378.926ZM1186.13 380.935L1187.29 372.926L1187.27 372.923L1187.25 372.92L1186.13 380.935ZM1211.58 392.822L1204.44 396.631L1204.48 396.722L1204.54 396.812L1211.58 392.822ZM1205.38 427.814L1209.93 434.509L1209.94 434.5L1209.96 434.49L1205.38 427.814ZM1179.93 425.749C1176.57 425.749 1172.9 425.545 1168.89 425.124L1167.2 441.22C1171.68 441.692 1175.93 441.934 1179.93 441.934V425.749ZM1168.7 425.106C1164.74 424.784 1161.02 424.358 1157.54 423.831L1155.11 439.834C1159 440.423 1163.09 440.89 1167.39 441.238L1168.7 425.106ZM1157.57 423.837C1154.11 423.295 1151.2 422.765 1148.84 422.25L1145.4 438.066C1148.17 438.668 1151.4 439.254 1155.08 439.828L1157.57 423.837ZM1155.2 430.485L1155.87 413.91L1139.7 413.256L1139.03 429.832L1155.2 430.485ZM1146.86 421.623C1149.73 421.954 1152.94 422.341 1156.49 422.785L1158.5 406.725C1154.91 406.276 1151.65 405.882 1148.71 405.544L1146.86 421.623ZM1156.52 422.789C1160.27 423.243 1163.9 423.641 1167.43 423.982L1168.99 407.872C1165.6 407.544 1162.09 407.16 1158.47 406.721L1156.52 422.789ZM1167.71 424.004C1171.36 424.232 1174.45 424.355 1176.92 424.355V408.169C1174.92 408.169 1172.21 408.068 1168.72 407.85L1167.71 424.004ZM1176.92 424.355C1180.64 424.355 1184.14 424.053 1187.18 423.251L1183.06 407.598C1181.87 407.913 1179.9 408.169 1176.92 408.169V424.355ZM1187.09 423.276C1190.29 422.475 1193.6 420.975 1196.13 418.19L1184.16 407.302C1184.31 407.139 1184.38 407.124 1184.24 407.196C1184.1 407.273 1183.76 407.422 1183.16 407.574L1187.09 423.276ZM1196.36 417.927C1199.1 414.639 1199.91 410.639 1199.91 407.054H1183.73C1183.73 407.687 1183.65 407.981 1183.64 408.035C1183.63 408.064 1183.69 407.852 1183.93 407.565L1196.36 417.927ZM1199.91 407.054C1199.91 403.753 1199.01 399.956 1196.04 396.978L1184.59 408.423C1184.16 407.99 1183.91 407.526 1183.8 407.189C1183.69 406.89 1183.73 406.802 1183.73 407.054H1199.91ZM1196.36 397.324C1193.73 394.361 1189.82 393.062 1186.92 392.338L1182.99 408.04C1184.01 408.294 1184.59 408.518 1184.87 408.647C1185 408.706 1184.99 408.714 1184.89 408.647C1184.8 408.582 1184.55 408.403 1184.26 408.077L1196.36 397.324ZM1187.31 392.447C1184.19 391.497 1179.94 390.646 1174.81 389.848L1172.33 405.842C1177.24 406.606 1180.59 407.319 1182.6 407.931L1187.31 392.447ZM1174.71 389.834C1168.87 388.998 1164.37 387.843 1161.04 386.494L1154.96 401.494C1159.89 403.494 1165.77 404.906 1172.43 405.857L1174.71 389.834ZM1161.11 386.524C1158.45 385.413 1156.98 384.021 1156.11 382.535L1142.14 390.72C1145.07 395.708 1149.52 399.227 1154.89 401.465L1161.11 386.524ZM1156.17 382.638C1155.21 380.952 1154.37 377.983 1154.37 373.066H1138.19C1138.19 379.534 1139.25 385.606 1142.09 390.617L1156.17 382.638ZM1154.37 373.066C1154.37 367.23 1155.65 363.787 1157.21 361.769L1144.39 351.883C1139.92 357.677 1138.19 365.062 1138.19 373.066H1154.37ZM1157.21 361.769C1159.14 359.269 1161.71 357.452 1165.26 356.349L1160.45 340.894C1153.95 342.917 1148.49 346.569 1144.39 351.883L1157.21 361.769ZM1165.41 356.299C1169.52 354.93 1174.12 354.203 1179.26 354.203V338.018C1172.58 338.018 1166.23 338.965 1160.3 340.944L1165.41 356.299ZM1179.26 354.203C1182.86 354.203 1186.59 354.409 1190.45 354.826L1192.19 338.734C1187.79 338.258 1183.48 338.018 1179.26 338.018V354.203ZM1190.66 354.846C1194.63 355.168 1198.35 355.594 1201.82 356.121L1204.25 340.118C1200.36 339.529 1196.27 339.062 1191.97 338.714L1190.66 354.846ZM1201.82 356.121C1205.4 356.662 1208.26 357.186 1210.45 357.685L1214.04 341.902C1211.32 341.285 1208.05 340.693 1204.25 340.118L1201.82 356.121ZM1204.16 349.473L1203.49 366.384L1219.66 367.024L1220.33 350.114L1204.16 349.473ZM1212.85 358.713C1209.84 358.23 1206.41 357.819 1202.6 357.472L1201.13 373.591C1204.69 373.914 1207.73 374.285 1210.3 374.695L1212.85 358.713ZM1202.84 357.498C1199 357.032 1195.15 356.682 1191.3 356.449L1190.33 372.605C1193.85 372.819 1197.37 373.139 1200.89 373.566L1202.84 357.498ZM1191.32 356.45C1187.65 356.221 1184.46 356.1 1181.77 356.1V372.285C1184 372.285 1186.84 372.387 1190.31 372.604L1191.32 356.45ZM1181.77 356.1C1178.64 356.1 1175.6 356.439 1172.74 357.232L1177.08 372.827C1178.24 372.504 1179.78 372.285 1181.77 372.285V356.1ZM1173.15 357.129C1170.09 357.81 1166.99 359.162 1164.5 361.651L1175.94 373.096C1175.69 373.353 1175.71 373.142 1176.67 372.93L1173.15 357.129ZM1164.21 361.96C1161.34 365.142 1160.62 369.115 1160.62 372.396H1176.81C1176.81 371.861 1176.87 371.699 1176.84 371.792C1176.81 371.913 1176.66 372.322 1176.24 372.787L1164.21 361.96ZM1160.62 372.396C1160.62 375.599 1161.59 378.9 1164.01 381.624L1176.1 370.871C1176.37 371.17 1176.57 371.524 1176.69 371.872C1176.81 372.203 1176.81 372.406 1176.81 372.396H1160.62ZM1164.01 381.624C1166.4 384.322 1169.84 385.753 1172.62 386.638L1177.53 371.214C1176.62 370.923 1176.07 370.68 1175.79 370.53C1175.66 370.459 1175.63 370.435 1175.68 370.472C1175.73 370.508 1175.89 370.633 1176.1 370.871L1164.01 381.624ZM1173.03 386.757C1176.06 387.545 1180.11 388.266 1185.01 388.95L1187.25 372.92C1182.55 372.264 1179.23 371.646 1177.12 371.095L1173.03 386.757ZM1184.96 388.944C1191.52 389.896 1196.27 391.157 1199.49 392.549L1205.91 377.693C1200.87 375.513 1194.57 373.983 1187.29 372.926L1184.96 388.944ZM1199.49 392.549C1202.26 393.748 1203.66 395.185 1204.44 396.631L1218.72 389.014C1215.92 383.762 1211.4 380.065 1205.91 377.693L1199.49 392.549ZM1204.54 396.812C1205.49 398.498 1206.33 401.467 1206.33 406.384H1222.52C1222.52 399.915 1221.46 393.844 1218.62 388.832L1204.54 396.812ZM1206.33 406.384C1206.33 415.002 1203.84 419.06 1200.81 421.138L1209.96 434.49C1218.98 428.309 1222.52 418.08 1222.52 406.384H1206.33ZM1200.83 421.12C1196.81 423.855 1190.18 425.749 1179.93 425.749V441.934C1191.78 441.934 1202.12 439.811 1209.93 434.509L1200.83 421.12Z" fill="white"/>
<rect opacity="0.88" x="888.79" y="238.214" width="391.839" height="82" rx="19" transform="rotate(7.56106 888.79 238.214)" fill="white"/>
<path d="M940.126 297.116L940.621 293.382L946.302 294.136L945.806 297.87L940.126 297.116ZM919.77 294.414L920.265 290.68L939.885 293.284L936.121 295.835L937.643 284.368C937.987 281.774 937.961 279.683 937.565 278.096C937.169 276.509 936.329 275.309 935.046 274.496C933.802 273.653 932.04 273.08 929.761 272.778L925.5 272.212L925.996 268.477L930.256 269.043C933.062 269.415 935.405 270.173 937.288 271.314C939.17 272.456 940.5 274.132 941.278 276.34C942.06 278.514 942.216 281.371 941.745 284.913L940.126 297.116L919.77 294.414ZM945.806 297.87L946.302 294.136C946.758 294.196 947.015 294.409 947.074 294.773C947.172 295.107 947.184 295.555 947.11 296.116C947.035 296.677 946.905 297.124 946.718 297.456C946.566 297.793 946.262 297.931 945.806 297.87ZM955.598 299.17L956.094 295.435L961.774 296.189L961.279 299.924L955.598 299.17ZM961.279 299.924L961.774 296.189C962.23 296.25 962.488 296.462 962.546 296.827C962.645 297.161 962.657 297.609 962.582 298.17C962.508 298.731 962.377 299.178 962.19 299.51C962.038 299.846 961.735 299.984 961.279 299.924ZM945.815 297.871L946.31 294.137L953.885 295.142L951.789 296.416L954.986 272.326L959.089 272.87L955.598 299.17L945.815 297.871ZM945.815 297.871C945.359 297.811 945.101 297.598 945.043 297.233C944.949 296.864 944.939 296.399 945.014 295.838C945.088 295.277 945.217 294.848 945.399 294.551C945.551 294.214 945.854 294.076 946.31 294.137L945.815 297.871ZM946.662 307.618L947.29 302.884L951.393 303.429L950.765 308.163L946.662 307.618ZM953.868 308.575L954.496 303.841L958.599 304.386L957.971 309.119L953.868 308.575ZM989.206 303.631L989.702 299.896L995.383 300.65L994.887 304.385L989.206 303.631ZM961.276 299.923L961.772 296.189L988.334 299.715L985.285 301.719L988.336 278.733L990.255 280.807L981.313 279.62C979.279 279.351 977.669 279.387 976.482 279.729C975.329 280.075 974.452 280.904 973.85 282.216C973.252 283.493 972.781 285.428 972.437 288.023C972.092 290.618 972.04 292.627 972.279 294.051C972.523 295.439 973.156 296.451 974.178 297.086C975.235 297.726 976.78 298.181 978.814 298.451L978.458 301.134C975.407 300.729 973.071 300.044 971.451 299.08C969.87 298.085 968.845 296.664 968.377 294.818C967.948 292.941 967.934 290.495 968.334 287.479C968.734 284.463 969.395 282.035 970.318 280.195C971.28 278.324 972.663 277.045 974.467 276.357C976.311 275.638 978.758 275.481 981.809 275.886L992.697 277.331L989.206 303.631L961.276 299.923ZM961.276 299.923C960.82 299.863 960.563 299.65 960.504 299.286C960.41 298.917 960.401 298.451 960.475 297.89C960.55 297.329 960.678 296.9 960.86 296.603C961.012 296.267 961.316 296.128 961.772 296.189L961.276 299.923ZM994.887 304.385L995.383 300.65C995.838 300.711 996.096 300.923 996.154 301.288C996.253 301.622 996.265 302.07 996.19 302.631C996.116 303.192 995.985 303.639 995.798 303.971C995.647 304.307 995.343 304.445 994.887 304.385ZM981.175 270.984L981.803 266.25L985.906 266.795L985.278 271.529L981.175 270.984ZM1024.69 308.341L1025.19 304.607L1030.87 305.361L1030.37 309.095L1024.69 308.341ZM994.87 304.383L995.365 300.648L1024.14 304.467L1020.8 306.219L1022.3 294.91C1022.63 292.455 1022.6 290.489 1022.23 289.012C1021.85 287.535 1021.02 286.408 1019.73 285.63C1018.48 284.857 1016.7 284.317 1014.38 284.01C1012.91 283.814 1011.42 283.724 1009.92 283.739C1008.46 283.758 1007.3 283.89 1006.44 284.134L1009.25 281.937C1008.93 282.751 1008.58 283.792 1008.19 285.062C1007.82 286.296 1007.46 287.641 1007.12 289.095C1006.79 290.549 1006.52 292.012 1006.33 293.485C1006.13 294.993 1006 296.475 1005.95 297.931C1005.9 299.388 1005.89 300.654 1005.93 301.729C1005.96 302.804 1006.01 303.559 1006.05 303.994L1002.02 304.582C1001.94 304.107 1001.87 303.295 1001.8 302.145C1001.78 301 1001.78 299.626 1001.82 298.025C1001.88 296.428 1002.04 294.736 1002.28 292.948C1002.5 291.229 1002.79 289.573 1003.15 287.979C1003.54 286.354 1003.93 284.889 1004.32 283.584C1004.74 282.284 1005.11 281.245 1005.43 280.467C1006.24 280.253 1007.51 280.101 1009.24 280.009C1010.96 279.916 1012.84 280.005 1014.88 280.275C1017.82 280.666 1020.22 281.43 1022.07 282.568C1023.95 283.71 1025.25 285.328 1025.97 287.422C1026.7 289.481 1026.84 292.158 1026.4 295.454L1024.69 308.341L994.87 304.383ZM994.87 304.383C994.414 304.322 994.157 304.11 994.098 303.745C994.004 303.376 993.995 302.91 994.069 302.349C994.143 301.788 994.272 301.359 994.454 301.062C994.606 300.726 994.91 300.588 995.365 300.648L994.87 304.383ZM1030.37 309.095L1030.87 305.361C1031.33 305.421 1031.58 305.634 1031.64 305.999C1031.74 306.333 1031.75 306.78 1031.68 307.341C1031.6 307.903 1031.47 308.349 1031.29 308.681C1031.13 309.018 1030.83 309.156 1030.37 309.095ZM1036.73 309.939L1041.73 272.225L1045.84 272.77L1040.83 310.483L1036.73 309.939ZM1030.36 309.094L1030.86 305.359L1037.22 306.204L1036.73 309.939L1030.36 309.094ZM1030.36 309.094C1029.91 309.034 1029.65 308.821 1029.59 308.456C1029.5 308.087 1029.49 307.622 1029.56 307.061C1029.64 306.5 1029.77 306.071 1029.95 305.774C1030.1 305.437 1030.4 305.299 1030.86 305.359L1030.36 309.094ZM1049.9 311.687L1054.9 273.973L1058.96 274.511L1053.95 312.225L1049.9 311.687ZM1123.71 321.485L1124.21 317.75L1129.89 318.504L1129.39 322.239L1123.71 321.485ZM1129.39 322.239L1129.89 318.504C1130.34 318.565 1130.6 318.777 1130.66 319.142C1130.76 319.476 1130.77 319.924 1130.69 320.485C1130.62 321.046 1130.49 321.492 1130.3 321.824C1130.15 322.161 1129.85 322.299 1129.39 322.239ZM1096.1 317.819L1096.59 314.085L1123.89 317.708L1119.65 320.624L1121.29 308.264C1121.58 306.054 1121.53 304.191 1121.12 302.674C1120.72 301.123 1119.96 299.897 1118.83 298.998C1117.73 298.103 1116.26 297.532 1114.4 297.286C1112.89 297.086 1111.43 297.16 1110.03 297.509C1108.63 297.823 1107.32 298.327 1106.09 299.019C1104.86 299.677 1103.68 300.449 1102.57 301.335C1101.49 302.192 1100.48 303.075 1099.54 303.984C1098.6 304.894 1097.74 305.726 1096.96 306.479L1096.14 302.57C1097.16 301.599 1098.18 300.629 1099.2 299.658C1100.26 298.692 1101.34 297.801 1102.45 296.984C1103.56 296.133 1104.74 295.415 1106 294.833C1107.29 294.254 1108.66 293.848 1110.12 293.614C1111.58 293.344 1113.19 293.325 1114.95 293.558C1117.44 293.889 1119.41 294.579 1120.88 295.63C1122.38 296.686 1123.48 297.973 1124.17 299.492C1124.9 300.981 1125.33 302.538 1125.47 304.162C1125.62 305.787 1125.59 307.335 1125.39 308.808L1123.71 321.485L1096.1 317.819ZM1082.94 298.409L1083.44 294.621L1094.8 296.13L1094.3 299.917L1082.94 298.409ZM1091.99 317.274L1095.48 290.975L1099.59 291.519L1096.1 317.819L1091.99 317.274ZM1069.46 326.113C1069.01 326.053 1068.54 325.955 1068.06 325.819C1067.54 325.715 1067.03 325.612 1066.55 325.512L1067.51 321.84C1068 321.94 1068.45 322.036 1068.87 322.127C1069.28 322.253 1069.64 322.337 1069.96 322.379C1071.61 322.597 1073.02 322.143 1074.21 321.016C1075.39 319.923 1076.12 318.273 1076.42 316.063L1080.02 288.922L1084.12 289.467L1080.52 316.608C1080.24 318.747 1079.57 320.567 1078.51 322.069C1077.49 323.61 1076.2 324.723 1074.64 325.409C1073.08 326.13 1071.36 326.365 1069.46 326.113ZM1139.18 323.538L1139.68 319.804L1145.36 320.558L1144.86 324.292L1139.18 323.538ZM1144.86 324.292L1145.36 320.558C1145.81 320.618 1146.07 320.831 1146.13 321.195C1146.23 321.53 1146.24 321.977 1146.17 322.538C1146.09 323.099 1145.96 323.546 1145.77 323.878C1145.62 324.215 1145.32 324.353 1144.86 324.292ZM1129.4 322.24L1129.89 318.505L1137.47 319.51L1135.37 320.784L1138.57 296.694L1142.67 297.239L1139.18 323.538L1129.4 322.24ZM1129.4 322.24C1128.94 322.179 1128.69 321.966 1128.63 321.602C1128.53 321.233 1128.52 320.767 1128.6 320.206C1128.67 319.645 1128.8 319.216 1128.98 318.919C1129.13 318.583 1129.44 318.445 1129.89 318.505L1129.4 322.24ZM1135.62 291.485L1136.25 286.751L1140.35 287.296L1139.72 292.03L1135.62 291.485ZM1142.83 292.442L1143.46 287.708L1147.56 288.252L1146.93 292.986L1142.83 292.442ZM1170.9 327.748L1171.39 324.013L1177.07 324.767L1176.58 328.502L1170.9 327.748ZM1144.86 324.292L1145.36 320.557L1168.55 323.636L1167.14 324.573L1168.87 311.529C1169.18 309.249 1168.68 307.453 1167.4 306.14C1166.15 304.797 1164.07 303.932 1161.16 303.546C1160.24 303.425 1158.92 303.338 1157.18 303.285C1155.44 303.197 1153.61 303.168 1151.67 303.197L1151.65 299.768C1153.13 299.608 1154.75 299.52 1156.5 299.502C1158.26 299.45 1159.94 299.531 1161.55 299.745C1164.22 300.098 1166.44 300.822 1168.22 301.915C1170.05 302.977 1171.36 304.365 1172.17 306.078C1173.01 307.796 1173.28 309.794 1172.98 312.073L1170.9 327.748L1144.86 324.292ZM1144.86 324.292C1144.4 324.231 1144.15 324.019 1144.09 323.654C1143.99 323.285 1143.98 322.82 1144.06 322.259C1144.13 321.698 1144.26 321.269 1144.44 320.972C1144.6 320.635 1144.9 320.497 1145.36 320.557L1144.86 324.292ZM1176.58 328.502L1177.07 324.767C1177.53 324.828 1177.79 325.04 1177.85 325.405C1177.94 325.739 1177.96 326.187 1177.88 326.748C1177.81 327.309 1177.68 327.756 1177.49 328.088C1177.34 328.424 1177.03 328.562 1176.58 328.502ZM1159.98 295.843L1160.61 291.109L1164.71 291.654L1164.09 296.388L1159.98 295.843ZM1206.38 332.457L1206.87 328.723L1212.55 329.477L1212.06 333.211L1206.38 332.457ZM1176.55 328.499L1177.05 324.764L1205.82 328.583L1202.48 330.335L1203.98 319.026C1204.31 316.571 1204.29 314.605 1203.91 313.128C1203.54 311.651 1202.7 310.524 1201.42 309.746C1200.16 308.973 1198.38 308.433 1196.06 308.126C1194.59 307.93 1193.11 307.84 1191.6 307.855C1190.14 307.875 1188.98 308.006 1188.13 308.25L1190.93 306.053C1190.61 306.867 1190.26 307.908 1189.88 309.178C1189.5 310.412 1189.14 311.757 1188.81 313.211C1188.47 314.665 1188.2 316.128 1188.01 317.601C1187.81 319.109 1187.68 320.591 1187.63 322.048C1187.58 323.504 1187.58 324.77 1187.61 325.845C1187.65 326.92 1187.69 327.675 1187.74 328.11L1183.7 328.698C1183.62 328.223 1183.55 327.411 1183.49 326.261C1183.46 325.116 1183.47 323.742 1183.5 322.141C1183.57 320.545 1183.72 318.852 1183.96 317.064C1184.19 315.345 1184.48 313.689 1184.83 312.095C1185.23 310.47 1185.62 309.005 1186 307.701C1186.43 306.401 1186.8 305.361 1187.11 304.583C1187.93 304.37 1189.2 304.217 1190.92 304.125C1192.65 304.032 1194.53 304.121 1196.56 304.391C1199.51 304.782 1201.9 305.546 1203.75 306.684C1205.63 307.826 1206.93 309.444 1207.66 311.538C1208.38 313.597 1208.53 316.274 1208.09 319.571L1206.38 332.457L1176.55 328.499ZM1176.55 328.499C1176.1 328.438 1175.84 328.226 1175.78 327.861C1175.69 327.492 1175.68 327.027 1175.75 326.466C1175.83 325.904 1175.96 325.475 1176.14 325.178C1176.29 324.842 1176.59 324.704 1177.05 324.764L1176.55 328.499ZM1212.06 333.211L1212.55 329.477C1213.01 329.537 1213.27 329.75 1213.33 330.115C1213.42 330.449 1213.44 330.896 1213.36 331.458C1213.29 332.019 1213.16 332.465 1212.97 332.797C1212.82 333.134 1212.51 333.272 1212.06 333.211ZM1218.41 334.055L1223.42 296.341L1227.52 296.886L1222.51 334.6L1218.41 334.055ZM1212.05 333.21L1212.54 329.476L1218.91 330.32L1218.41 334.055L1212.05 333.21ZM1212.05 333.21C1211.59 333.15 1211.33 332.937 1211.28 332.572C1211.18 332.203 1211.17 331.738 1211.25 331.177C1211.32 330.616 1211.45 330.187 1211.63 329.89C1211.78 329.553 1212.09 329.415 1212.54 329.476L1212.05 333.21ZM1235.63 336.341L1236.13 332.606L1242.55 333.458L1242.05 337.193L1235.63 336.341ZM1231.58 335.803L1236.59 298.089L1240.64 298.627L1235.63 336.341L1231.58 335.803ZM1242.05 337.193L1242.55 333.458C1243 333.518 1243.26 333.731 1243.32 334.096C1243.42 334.43 1243.43 334.878 1243.35 335.439C1243.28 336 1243.15 336.446 1242.96 336.778C1242.81 337.115 1242.51 337.253 1242.05 337.193ZM1242.05 337.192L1242.54 333.457L1250.12 334.463L1248.02 335.737L1251.22 311.646L1255.32 312.191L1251.83 338.491L1242.05 337.192ZM1242.05 337.192C1241.59 337.131 1241.33 336.919 1241.27 336.554C1241.18 336.185 1241.17 335.72 1241.25 335.159C1241.32 334.598 1241.45 334.169 1241.63 333.872C1241.78 333.535 1242.09 333.397 1242.54 333.457L1242.05 337.192ZM1246.47 347.414L1247.1 342.68L1251.2 343.225L1250.57 347.958L1246.47 347.414Z" fill="black"/>
</g>
<defs>
<filter id="filter0_d_211_2" x="-46.0588" y="86.9412" width="1659.12" height="848.118" filterUnits="userSpaceOnUse" color-interpolation-filters="sRGB">
<feFlood flood-opacity="0" result="BackgroundImageFix"/>
<feColorMatrix in="SourceAlpha" type="matrix" values="0 0 0 0 0 0 0 0 0 0 0 0 0 0 0 0 0 0 127 0" result="hardAlpha"/>
<feOffset dy="4"/>
<feGaussianBlur stdDeviation="2"/>
<feComposite in2="hardAlpha" operator="out"/>
<feColorMatrix type="matrix" values="0 0 0 0 0 0 0 0 0 0 0 0 0 0 0 0 0 0 0.25 0"/>
<feBlend mode="normal" in2="BackgroundImageFix" result="effect1_dropShadow_211_2"/>
<feBlend mode="normal" in="SourceGraphic" in2="effect1_dropShadow_211_2" result="shape"/>
</filter>
<linearGradient id="paint0_linear_211_2" x1="783.5" y1="89" x2="783.5" y2="925" gradientUnits="userSpaceOnUse">
<stop stop-color="white"/>
<stop offset="1" stop-color="#F100F5" stop-opacity="0"/>
</linearGradient>
<clipPath id="clip0_211_2">
<rect width="1280" height="640" rx="56" fill="white"/>
</clipPath>
</defs>
</svg>
